<?xml version="1.0" encoding="UTF-8" standalone="no"?>
<!-- Created with Inkscape (http://www.inkscape.org/) -->

<svg
   xmlns:dc="http://purl.org/dc/elements/1.1/"
   xmlns:cc="http://creativecommons.org/ns#"
   xmlns:rdf="http://www.w3.org/1999/02/22-rdf-syntax-ns#"
   xmlns:svg="http://www.w3.org/2000/svg"
   xmlns="http://www.w3.org/2000/svg"
   xmlns:sodipodi="http://sodipodi.sourceforge.net/DTD/sodipodi-0.dtd"
   xmlns:inkscape="http://www.inkscape.org/namespaces/inkscape"
   version="1.1"
   id="svg2"
   width="1108.24"
   height="526.76501"
   viewBox="0 0 1108.24 526.76502"
   sodipodi:docname="scheme Model.svg"
   inkscape:version="0.92.4 (5da689c313, 2019-01-14)">
  <metadata
     id="metadata228">
    <rdf:RDF>
      <cc:Work
         rdf:about="">
        <dc:format>image/svg+xml</dc:format>
        <dc:type
           rdf:resource="http://purl.org/dc/dcmitype/StillImage" />
      </cc:Work>
    </rdf:RDF>
  </metadata>
  <defs
     id="defs6" />
  <sodipodi:namedview
     id="namedview4"
     pagecolor="#ffffff"
     bordercolor="#666666"
     borderopacity="1.0"
     inkscape:showpageshadow="2"
     inkscape:pageopacity="0.0"
     inkscape:pagecheckerboard="0"
     inkscape:deskcolor="#d1d1d1"
     showgrid="false"
     inkscape:zoom="0.7492071"
     inkscape:rotation="-180"
     inkscape:cx="54.724523"
     inkscape:cy="346.36618"
     inkscape:window-width="2560"
     inkscape:window-height="1377"
     inkscape:window-x="-8"
     inkscape:window-y="-8"
     inkscape:window-maximized="1"
     inkscape:current-layer="g10">
    <inkscape:page
       x="0"
       y="0"
       id="page8"
       width="1108.24"
       height="526.76501" />
  </sodipodi:namedview>
  <g
     id="g10"
     inkscape:groupmode="layer"
     inkscape:label="Page 1"
     transform="matrix(1.3333333,0,0,-1.3333333,-152.4,1105.72)">
    <g
       id="g553"
       transform="rotate(90,312.79686,638.7)">
      <text
         xml:space="preserve"
         transform="matrix(0,-1,-1,0,0,0)"
         style="font-variant:normal;font-weight:normal;font-size:18.95999908px;font-family:Symbol;-inkscape-font-specification:Symbol;writing-mode:lr-tb;fill:#000000;fill-opacity:1;fill-rule:nonzero;stroke:none"
         id="text14"
         x="-601.82184"
         y="-481.55472"><tspan
           x="-601.82184"
           y="-481.55472"
           id="tspan12">q<tspan
   style="font-size:6px"
   id="tspan891">0</tspan></tspan></text>
      <g
         id="g16"
         transform="matrix(0.12,0,0,-0.12,6,837.39)"
         style="fill:#00ff00">
        <path
           d="m 3928,1945 9,-1 9,-3 7,-6 6,-6 5,-9 2,-8 v -10 l -2,-8 -5,-9 -6,-6 -7,-6 -9,-3 -9,-1 -9,1 -9,3 -7,6 -6,6 -5,9 -2,8 v 10 l 2,8 5,9 6,6 7,6 9,3 z"
           style="fill:#00ff00;stroke:#000000;stroke-width:7;stroke-linecap:round;stroke-linejoin:bevel;stroke-miterlimit:10;stroke-dasharray:none;stroke-opacity:1"
           id="path18"
           inkscape:connector-curvature="0" />
      </g>
      <text
         xml:space="preserve"
         transform="matrix(0,-1,-1,0,0,0)"
         style="font-variant:normal;font-weight:normal;font-size:18.95999908px;font-family:Symbol;-inkscape-font-specification:Symbol;writing-mode:lr-tb;fill:#000000;fill-opacity:1;fill-rule:nonzero;stroke:none"
         id="text22"
         x="-605.67072"
         y="-375.11328"><tspan
           x="-605.67072"
           y="-375.11328"
           id="tspan20">q<tspan
   style="font-size:6px"
   id="tspan887">3</tspan></tspan></text>
      <g
         id="g24"
         transform="matrix(0.12,0,0,-0.12,6,837.39)"
         style="fill:#00ff00">
        <path
           d="m 3035,1945 9,-1 9,-3 7,-6 6,-6 5,-9 2,-8 v -10 l -2,-8 -5,-9 -6,-6 -7,-6 -9,-3 -9,-1 -9,1 -9,3 -7,6 -6,6 -5,9 -2,8 v 10 l 2,8 5,9 6,6 7,6 9,3 z"
           style="fill:#00ff00;stroke:#000000;stroke-width:7;stroke-linecap:round;stroke-linejoin:bevel;stroke-miterlimit:10;stroke-dasharray:none;stroke-opacity:1"
           id="path26"
           inkscape:connector-curvature="0" />
      </g>
      <g
         id="g28"
         transform="matrix(0.12,0,0,-0.12,6,837.39)">
        <path
           d="M 3831,1907 H 3618"
           style="fill:none;stroke:#000000;stroke-width:7;stroke-linecap:round;stroke-linejoin:round;stroke-miterlimit:10;stroke-dasharray:none;stroke-opacity:1"
           id="path30"
           inkscape:connector-curvature="0" />
      </g>
      <path
         d="m 472.68,608.55 -10.44,-1.56 v 3.12 z"
         style="fill:#000000;fill-opacity:1;fill-rule:evenodd;stroke:none"
         id="path32"
         inkscape:connector-curvature="0" />
      <g
         id="g34"
         transform="matrix(0.12,0,0,-0.12,6,837.39)">
        <path
           d="M 3299,1907 H 3074"
           style="fill:none;stroke:#000000;stroke-width:7;stroke-linecap:round;stroke-linejoin:round;stroke-miterlimit:10;stroke-dasharray:none;stroke-opacity:1"
           id="path36"
           inkscape:connector-curvature="0" />
      </g>
      <path
         d="m 407.52,608.55 -10.44,-1.56 v 3.12 z"
         style="fill:#000000;fill-opacity:1;fill-rule:evenodd;stroke:none"
         id="path38"
         inkscape:connector-curvature="0" />
      <text
         xml:space="preserve"
         transform="matrix(0,-1,-1,0,0,0)"
         style="font-variant:normal;font-weight:normal;font-size:18.95999908px;font-family:Symbol;-inkscape-font-specification:Symbol;writing-mode:lr-tb;fill:#000000;fill-opacity:1;fill-rule:nonzero;stroke:none"
         id="text42"
         x="-606.75146"
         y="-266.64313"><tspan
           x="-606.75146"
           y="-266.64313"
           id="tspan40">q<tspan
   style="font-size:6px"
   id="tspan883">с</tspan></tspan></text>
      <g
         id="g44"
         transform="matrix(0.12,0,0,-0.12,6,837.39)">
        <path
           d="M 2952,1907 H 2725"
           style="fill:none;stroke:#000000;stroke-width:7;stroke-linecap:round;stroke-linejoin:round;stroke-miterlimit:10;stroke-dasharray:none;stroke-opacity:1"
           id="path46"
           inkscape:connector-curvature="0" />
      </g>
      <path
         d="m 365.52,608.55 -10.44,-1.56 v 3.12 z"
         style="fill:#000000;fill-opacity:1;fill-rule:evenodd;stroke:none"
         id="path48"
         inkscape:connector-curvature="0" />
      <g
         id="g50"
         transform="matrix(0.12,0,0,-0.12,6,837.39)">
        <path
           d="M 2409,1907 H 2181"
           style="fill:none;stroke:#000000;stroke-width:7;stroke-linecap:round;stroke-linejoin:round;stroke-miterlimit:10;stroke-dasharray:none;stroke-opacity:1"
           id="path52"
           inkscape:connector-curvature="0" />
      </g>
      <path
         d="m 300.36,608.55 -10.44,-1.56 v 3.12 z"
         style="fill:#000000;fill-opacity:1;fill-rule:evenodd;stroke:none"
         id="path54"
         inkscape:connector-curvature="0" />
      <text
         xml:space="preserve"
         transform="matrix(0,-1,-1,0,0,0)"
         style="font-variant:normal;font-weight:normal;font-size:18.95999908px;font-family:Symbol;-inkscape-font-specification:Symbol;writing-mode:lr-tb;fill:#000000;fill-opacity:1;fill-rule:nonzero;stroke:none"
         id="text58"
         x="-598.7124"
         y="-421.67905"><tspan
           x="-598.7124"
           y="-421.67905"
           id="tspan56">l<tspan
   style="font-size:6px"
   id="tspan889">30</tspan></tspan></text>
      <text
         xml:space="preserve"
         transform="matrix(0,-1,-1,0,0,0)"
         style="font-variant:normal;font-weight:normal;font-size:18.95999908px;font-family:Symbol;-inkscape-font-specification:Symbol;writing-mode:lr-tb;fill:#000000;fill-opacity:1;fill-rule:nonzero;stroke:none"
         id="text66"
         x="-597.63165"
         y="-311.04745"><tspan
           x="-597.63165"
           y="-311.04745"
           id="tspan64">l<tspan
   style="font-size:6px"
   id="tspan885">с3</tspan></tspan></text>
      <g
         id="g72"
         transform="matrix(0.12,0,0,-0.12,6,837.39)"
         style="fill:#00ff00">
        <path
           d="m 2142,1945 9,-1 9,-3 7,-6 6,-6 5,-9 2,-8 v -10 l -2,-8 -5,-9 -6,-6 -7,-6 -9,-3 -9,-1 -9,1 -9,3 -7,6 -6,6 -5,9 -2,8 v 10 l 2,8 5,9 6,6 7,6 9,3 z"
           style="fill:#00ff00;stroke:#000000;stroke-width:7;stroke-linecap:round;stroke-linejoin:bevel;stroke-miterlimit:10;stroke-dasharray:none;stroke-opacity:1"
           id="path74"
           inkscape:connector-curvature="0" />
      </g>
      <g
         id="g76"
         transform="matrix(0.12,0,0,-0.12,6,837.39)">
        <path
           d="M 2142,3764 V 3146"
           style="fill:none;stroke:#000000;stroke-width:7;stroke-linecap:round;stroke-linejoin:round;stroke-miterlimit:10;stroke-dasharray:none;stroke-opacity:1"
           id="path78"
           inkscape:connector-curvature="0" />
      </g>
      <path
         d="m 263.04,379.35 -1.56,10.44 h 3.12 z"
         style="fill:#000000;fill-opacity:1;fill-rule:evenodd;stroke:none"
         id="path80"
         inkscape:connector-curvature="0" />
      <g
         id="g82"
         transform="matrix(0.12,0,0,-0.12,6,837.39)">
        <path
           d="M 2142,2824 V 1946"
           style="fill:none;stroke:#000000;stroke-width:7;stroke-linecap:round;stroke-linejoin:round;stroke-miterlimit:10;stroke-dasharray:none;stroke-opacity:1"
           id="path84"
           inkscape:connector-curvature="0" />
      </g>
      <path
         d="m 263.04,492.51 -1.56,10.32 h 3.12 z"
         style="fill:#000000;fill-opacity:1;fill-rule:evenodd;stroke:none"
         id="path86"
         inkscape:connector-curvature="0" />
      <text
         xml:space="preserve"
         transform="matrix(0,-1,-1,0,0,0)"
         style="font-variant:normal;font-weight:normal;font-size:18.95999908px;font-family:Symbol;-inkscape-font-specification:Symbol;writing-mode:lr-tb;fill:#000000;fill-opacity:1;fill-rule:nonzero;stroke:none"
         id="text90"
         x="-379.59167"
         y="-269.88528"><tspan
           x="-379.59167"
           y="-269.88528"
           id="tspan88">q<tspan
   style="font-size:6px"
   id="tspan903">4</tspan></tspan></text>
      <g
         id="g92"
         transform="matrix(0.12,0,0,-0.12,6,837.39)">
        <path
           d="M 2142,5736 V 4896"
           style="fill:none;stroke:#000000;stroke-width:7;stroke-linecap:round;stroke-linejoin:round;stroke-miterlimit:10;stroke-dasharray:none;stroke-opacity:1"
           id="path94"
           inkscape:connector-curvature="0" />
      </g>
      <path
         d="m 263.04,142.83 -1.56,10.44 h 3.12 z"
         style="fill:#000000;fill-opacity:1;fill-rule:evenodd;stroke:none"
         id="path96"
         inkscape:connector-curvature="0" />
      <g
         id="g98"
         transform="matrix(0.12,0,0,-0.12,6,837.39)">
        <path
           d="M 2142,4581 V 3895"
           style="fill:none;stroke:#000000;stroke-width:7;stroke-linecap:round;stroke-linejoin:round;stroke-miterlimit:10;stroke-dasharray:none;stroke-opacity:1"
           id="path100"
           inkscape:connector-curvature="0" />
      </g>
      <path
         d="m 263.04,282.51 -1.56,10.44 h 3.12 z"
         style="fill:#000000;fill-opacity:1;fill-rule:evenodd;stroke:none"
         id="path102"
         inkscape:connector-curvature="0" />
      <text
         xml:space="preserve"
         transform="matrix(0,-1,-1,0,0,0)"
         style="font-variant:normal;font-weight:normal;font-size:18.95999908px;font-family:Symbol;-inkscape-font-specification:Symbol;writing-mode:lr-tb;fill:#000000;fill-opacity:1;fill-rule:nonzero;stroke:none"
         id="text106"
         x="-133.22542"
         y="-269.99905"><tspan
           x="-133.22542"
           y="-269.99905"
           id="tspan104">q<tspan
   style="font-size:6px"
   id="tspan911">5</tspan></tspan></text>
      <text
         xml:space="preserve"
         transform="matrix(0,-1,-1,0,0,0)"
         style="font-variant:normal;font-weight:normal;font-size:18.95999908px;font-family:Symbol;-inkscape-font-specification:Symbol;writing-mode:lr-tb;fill:#000000;fill-opacity:1;fill-rule:nonzero;stroke:none"
         id="text110"
         x="-602.67505"
         y="-161.88911"><tspan
           x="-602.67505"
           y="-161.88911"
           id="tspan108">q<tspan
   style="font-size:6px"
   id="tspan879">р</tspan></tspan></text>
      <g
         id="g112"
         transform="matrix(0.12,0,0,-0.12,6,837.39)"
         style="fill:#00ff00">
        <path
           d="m 1273,1945 9,-1 9,-3 7,-6 6,-6 5,-9 2,-8 v -10 l -2,-8 -5,-9 -6,-6 -7,-6 -9,-3 -9,-1 -9,1 -9,3 -7,6 -6,6 -5,9 -2,8 v 10 l 2,8 5,9 6,6 7,6 9,3 z"
           style="fill:#00ff00;stroke:#000000;stroke-width:7;stroke-linecap:round;stroke-linejoin:bevel;stroke-miterlimit:10;stroke-dasharray:none;stroke-opacity:1"
           id="path114"
           inkscape:connector-curvature="0" />
      </g>
      <g
         id="g116"
         transform="matrix(0.12,0,0,-0.12,6,837.39)">
        <path
           d="M 2044,1907 H 1843"
           style="fill:none;stroke:#000000;stroke-width:7;stroke-linecap:round;stroke-linejoin:round;stroke-miterlimit:10;stroke-dasharray:none;stroke-opacity:1"
           id="path118"
           inkscape:connector-curvature="0" />
      </g>
      <path
         d="m 258.36,608.55 -10.44,-1.56 v 3.12 z"
         style="fill:#000000;fill-opacity:1;fill-rule:evenodd;stroke:none"
         id="path120"
         inkscape:connector-curvature="0" />
      <g
         id="g122"
         transform="matrix(0.12,0,0,-0.12,6,837.39)">
        <path
           d="M 1520,1907 H 1312"
           style="fill:none;stroke:#000000;stroke-width:7;stroke-linecap:round;stroke-linejoin:round;stroke-miterlimit:10;stroke-dasharray:none;stroke-opacity:1"
           id="path124"
           inkscape:connector-curvature="0" />
      </g>
      <path
         d="m 194.52,608.55 -10.44,-1.56 v 3.12 z"
         style="fill:#000000;fill-opacity:1;fill-rule:evenodd;stroke:none"
         id="path126"
         inkscape:connector-curvature="0" />
      <text
         xml:space="preserve"
         transform="matrix(0,-1,-1,0,0,0)"
         style="font-variant:normal;font-weight:normal;font-size:18.95999908px;font-family:Symbol;-inkscape-font-specification:Symbol;writing-mode:lr-tb;fill:#000000;fill-opacity:1;fill-rule:nonzero;stroke:none"
         id="text130"
         x="-131.06398"
         y="-152.76936"><tspan
           x="-131.06398"
           y="-152.76936"
           id="tspan128">q<tspan
   style="font-size:6px"
   id="tspan915">в</tspan></tspan></text>
      <path
         d="m 258.36,138.03 -10.44,-1.56 v 3.12 z"
         style="fill:#000000;fill-opacity:1;fill-rule:evenodd;stroke:none"
         id="path132"
         inkscape:connector-curvature="0" />
      <g
         id="g134"
         transform="matrix(0.12,0,0,-0.12,6,837.39)">
        <path
           d="m 2051,5828 -208,-1 m -321,0 h -211"
           style="fill:none;stroke:#000000;stroke-width:7;stroke-linecap:round;stroke-linejoin:round;stroke-miterlimit:10;stroke-dasharray:none;stroke-opacity:1"
           id="path136"
           inkscape:connector-curvature="0" />
      </g>
      <path
         d="m 194.52,138.15 -10.44,-1.56 v 3.12 z"
         style="fill:#000000;fill-opacity:1;fill-rule:evenodd;stroke:none"
         id="path138"
         inkscape:connector-curvature="0" />
      <g
         id="g140"
         transform="matrix(0.12,0,0,-0.12,6,837.39)"
         style="fill:#00ff00">
        <path
           d="m 1272,5865 9,-1 9,-3 7,-6 6,-6 5,-9 2,-8 v -10 l -2,-8 -5,-9 -6,-6 -7,-6 -9,-3 -9,-1 -9,1 -9,3 -7,6 -6,6 -5,9 -2,8 v 10 l 2,8 5,9 6,6 7,6 9,3 z"
           style="fill:#00ff00;stroke:#000000;stroke-width:7;stroke-linecap:round;stroke-linejoin:bevel;stroke-miterlimit:10;stroke-dasharray:none;stroke-opacity:1"
           id="path142"
           inkscape:connector-curvature="0" />
      </g>
      <path
         d="m 158.64,142.83 -1.44,10.44 h 3.12 z"
         style="fill:#000000;fill-opacity:1;fill-rule:evenodd;stroke:none"
         id="path144"
         inkscape:connector-curvature="0" />
      <path
         d="m 158.76,492.51 -1.56,10.32 h 3.12 z"
         style="fill:#000000;fill-opacity:1;fill-rule:evenodd;stroke:none"
         id="path146"
         inkscape:connector-curvature="0" />
      <g
         id="g148"
         transform="matrix(0.12,0,0,-0.12,6,837.39)">
        <path
           d="M 2142,216 V 863"
           style="fill:none;stroke:#000000;stroke-width:7;stroke-linecap:round;stroke-linejoin:round;stroke-miterlimit:10;stroke-dasharray:none;stroke-opacity:1"
           id="path150"
           inkscape:connector-curvature="0" />
      </g>
      <path
         d="m 263.04,818.55 1.56,-10.44 h -3.12 z"
         style="fill:#000000;fill-opacity:1;fill-rule:evenodd;stroke:none"
         id="path152"
         inkscape:connector-curvature="0" />
      <g
         id="g154"
         transform="matrix(0.12,0,0,-0.12,6,837.39)">
        <path
           d="m 2142,1182 v 686"
           style="fill:none;stroke:#000000;stroke-width:7;stroke-linecap:round;stroke-linejoin:round;stroke-miterlimit:10;stroke-dasharray:none;stroke-opacity:1"
           id="path156"
           inkscape:connector-curvature="0" />
      </g>
      <path
         d="m 263.04,701.19 1.56,-10.44 h -3.12 z"
         style="fill:#000000;fill-opacity:1;fill-rule:evenodd;stroke:none"
         id="path158"
         inkscape:connector-curvature="0" />
      <text
         xml:space="preserve"
         transform="matrix(0,-1,-1,0,0,0)"
         style="font-variant:normal;font-weight:normal;font-size:18.95999908px;font-family:Symbol;-inkscape-font-specification:Symbol;writing-mode:lr-tb;fill:#000000;fill-opacity:1;fill-rule:nonzero;stroke:none"
         id="text174"
         x="-816.75238"
         y="-363.60455"><tspan
           x="-816.75238"
           y="-363.60455"
           id="tspan172">q<tspan
   style="font-size:6px"
   id="tspan794">1</tspan></tspan></text>
      <text
         xml:space="preserve"
         transform="matrix(0,-1,-1,0,0,0)"
         style="font-variant:normal;font-weight:normal;font-size:18.95999908px;font-family:Symbol;-inkscape-font-specification:Symbol;writing-mode:lr-tb;fill:#000000;fill-opacity:1;fill-rule:nonzero;stroke:none"
         id="text174-3"
         x="-817.47205"
         y="-270.49591"><tspan
           x="-817.47205"
           y="-270.49591"
           id="tspan172-6">q<tspan
   style="font-size:6px"
   id="tspan875">2</tspan></tspan></text>
      <g
         id="g176"
         transform="matrix(0.12,0,0,-0.12,6,837.39)"
         style="fill:#00ff00">
        <path
           d="m 3035,156 9,-1 9,-3 7,-6 6,-6 5,-9 2,-8 v -10 l -2,-8 -5,-9 -6,-6 -7,-6 -9,-3 -9,-1 -9,1 -9,3 -7,6 -6,6 -5,9 -2,8 v 10 l 2,8 5,9 6,6 7,6 9,3 z"
           style="fill:#00ff00;stroke:#000000;stroke-width:7;stroke-linecap:round;stroke-linejoin:bevel;stroke-miterlimit:10;stroke-dasharray:none;stroke-opacity:1"
           id="path178"
           inkscape:connector-curvature="0" />
      </g>
      <g
         id="g180"
         transform="matrix(0.12,0,0,-0.12,6,837.39)">
        <path
           d="m 2952,118 h -228 m -315,0 h -228"
           style="fill:none;stroke:#000000;stroke-width:7;stroke-linecap:round;stroke-linejoin:round;stroke-miterlimit:10;stroke-dasharray:none;stroke-opacity:1"
           id="path182"
           inkscape:connector-curvature="0" />
      </g>
      <path
         d="m 300.36,823.23 -10.44,-1.56 v 3.12 z"
         style="fill:#000000;fill-opacity:1;fill-rule:evenodd;stroke:none"
         id="path184"
         inkscape:connector-curvature="0" />
      <text
         xml:space="preserve"
         transform="matrix(0,-1,-1,0,0,0)"
         style="font-variant:normal;font-weight:normal;font-size:18.95999908px;font-family:Symbol;-inkscape-font-specification:Symbol;writing-mode:lr-tb;fill:#000000;fill-opacity:1;fill-rule:nonzero;stroke:none"
         id="text188"
         x="-812.31573"
         y="-311.04745"><tspan
           x="-812.31573"
           y="-311.04745"
           id="tspan186">l<tspan
   style="font-size:6px"
   id="tspan782">21</tspan></tspan></text>
      <g
         id="g194"
         transform="matrix(0.12,0,0,-0.12,6,837.39)">
        <path
           d="m 2181,5828 1110,-1 m 326,0 h 208 M 3928,157 v 1711 m 0,78 v 1871 m 0,77 v 1895"
           style="fill:none;stroke:#000000;stroke-width:7;stroke-linecap:round;stroke-linejoin:round;stroke-miterlimit:10;stroke-dasharray:none;stroke-opacity:1"
           id="path196"
           inkscape:connector-curvature="0" />
      </g>
      <text
         xml:space="preserve"
         transform="matrix(0,-1,-1,0,0,0)"
         style="font-variant:normal;font-weight:normal;font-size:18.95999908px;font-family:Symbol;-inkscape-font-specification:Symbol;writing-mode:lr-tb;fill:#000000;fill-opacity:1;fill-rule:nonzero;stroke:none"
         id="text200"
         x="-370.35815"
         y="-482.27521"><tspan
           x="-370.35815"
           y="-482.27521"
           id="tspan198">q<tspan
   style="font-size:6px"
   id="tspan893">0</tspan></tspan></text>
      <g
         id="g202"
         transform="matrix(0.12,0,0,-0.12,6,837.39)"
         style="fill:#00ff00">
        <path
           d="m 3928,5865 9,-1 9,-3 7,-6 6,-6 5,-9 2,-8 v -10 l -2,-8 -5,-9 -6,-6 -7,-6 -9,-3 -9,-1 -9,1 -9,3 -7,6 -6,6 -5,9 -2,8 v 10 l 2,8 5,9 6,6 7,6 9,3 z"
           style="fill:#00ff00;stroke:#000000;stroke-width:7;stroke-linecap:round;stroke-linejoin:bevel;stroke-miterlimit:10;stroke-dasharray:none;stroke-opacity:1"
           id="path204"
           inkscape:connector-curvature="0" />
      </g>
      <path
         d="m 407.4,138.15 -10.44,-1.56 v 3.12 z"
         style="fill:#000000;fill-opacity:1;fill-rule:evenodd;stroke:none"
         id="path206"
         inkscape:connector-curvature="0" />
      <path
         d="m 472.68,138.15 -10.44,-1.56 v 3.12 z"
         style="fill:#000000;fill-opacity:1;fill-rule:evenodd;stroke:none"
         id="path208"
         inkscape:connector-curvature="0" />
      <text
         xml:space="preserve"
         transform="matrix(0,-1,-1,0,0,0)"
         style="font-variant:normal;font-weight:normal;font-size:18.95999908px;font-family:Symbol;-inkscape-font-specification:Symbol;writing-mode:lr-tb;fill:#000000;fill-opacity:1;fill-rule:nonzero;stroke:none"
         id="text212"
         x="-724.94806"
         y="-272.88095"><tspan
           x="-724.94806"
           y="-272.88095"
           id="tspan210">l<tspan
   style="font-size:6px"
   id="tspan877">с2</tspan></tspan></text>
      <text
         xml:space="preserve"
         transform="matrix(0,-1,-1,0,0,0)"
         style="font-variant:normal;font-weight:normal;font-size:18.95999908px;font-family:Symbol;-inkscape-font-specification:Symbol;writing-mode:lr-tb;fill:#000000;fill-opacity:1;fill-rule:nonzero;stroke:none"
         id="text220"
         x="-599.07263"
         y="-206.52097"><tspan
           x="-599.07263"
           y="-206.52097"
           id="tspan218">l<tspan
   style="font-size:6px"
   id="tspan881">рс</tspan></tspan></text>
      <text
         xml:space="preserve"
         transform="matrix(0,-1,-1,0,0,0)"
         style="font-variant:normal;font-weight:normal;font-size:18.95999908px;font-family:Symbol;-inkscape-font-specification:Symbol;writing-mode:lr-tb;fill:#000000;fill-opacity:1;fill-rule:nonzero;stroke:none"
         id="text228"
         x="-482.18423"
         y="-168.71472"><tspan
           x="-482.18423"
           y="-168.71472"
           id="tspan226">l<tspan
   style="font-size:6px"
   id="tspan917">рв</tspan></tspan></text>
      <text
         xml:space="preserve"
         transform="matrix(0,-1,-1,0,0,0)"
         style="font-variant:normal;font-weight:normal;font-size:18.95999908px;font-family:Symbol;-inkscape-font-specification:Symbol;writing-mode:lr-tb;fill:#000000;fill-opacity:1;fill-rule:nonzero;stroke:none"
         id="text236"
         x="-129.62305"
         y="-217.6884"><tspan
           x="-129.62305"
           y="-217.6884"
           id="tspan234">l<tspan
   style="font-size:6px"
   id="tspan913">в5</tspan></tspan></text>
      <text
         xml:space="preserve"
         transform="matrix(0,-1,-1,0,0,0)"
         style="font-variant:normal;font-weight:normal;font-size:18.95999908px;font-family:Symbol;-inkscape-font-specification:Symbol;writing-mode:lr-tb;fill:#000000;fill-opacity:1;fill-rule:nonzero;stroke:none"
         id="text240"
         x="-275.31168"
         y="-272.88095"><tspan
           x="-275.31168"
           y="-272.88095"
           id="tspan238">l<tspan
   style="font-size:6px"
   id="tspan909">45</tspan></tspan></text>
      <text
         xml:space="preserve"
         transform="matrix(0,-1,-1,0,0,0)"
         style="font-variant:normal;font-weight:normal;font-size:18.95999908px;font-family:Symbol;-inkscape-font-specification:Symbol;writing-mode:lr-tb;fill:#000000;fill-opacity:1;fill-rule:nonzero;stroke:none"
         id="text248"
         x="-484.70593"
         y="-272.88095"><tspan
           x="-484.70593"
           y="-272.88095"
           id="tspan246">l<tspan
   style="font-size:6px"
   id="tspan901">с4</tspan></tspan></text>
      <text
         xml:space="preserve"
         transform="matrix(0,-1,-1,0,0,0)"
         style="font-variant:normal;font-weight:normal;font-size:18.95999908px;font-family:Symbol;-inkscape-font-specification:Symbol;writing-mode:lr-tb;fill:#000000;fill-opacity:1;fill-rule:nonzero;stroke:none"
         id="text256"
         x="-129.98328"
         y="-421.67905"><tspan
           x="-129.98328"
           y="-421.67905"
           id="tspan254">l<tspan
   style="font-size:6px"
   id="tspan907">50</tspan></tspan></text>
      <g
         id="g266"
         transform="matrix(0.12,0,0,-0.12,6,837.39)"
         style="fill:#00ff00">
        <path
           d="m 2142,156 9,-1 9,-3 7,-6 6,-6 5,-9 2,-8 v -10 l -2,-8 -5,-9 -6,-6 -7,-6 -9,-3 -9,-1 -9,1 -9,3 -7,6 -6,6 -5,9 -2,8 v 10 l 2,8 5,9 6,6 7,6 9,3 z"
           style="fill:#00ff00;stroke:#000000;stroke-width:7;stroke-linecap:round;stroke-linejoin:bevel;stroke-miterlimit:10;stroke-dasharray:none;stroke-opacity:1"
           id="path268"
           inkscape:connector-curvature="0" />
      </g>
      <g
         id="g270"
         transform="matrix(0.12,0,0,-0.12,6,837.39)"
         style="fill:#00ff00">
        <path
           d="m 2142,5866 9,-1 9,-3 7,-6 6,-6 5,-9 2,-8 v -10 l -2,-8 -5,-9 -6,-6 -7,-6 -9,-3 -9,-1 -9,1 -9,3 -7,6 -6,6 -5,9 -2,8 v 10 l 2,8 5,9 6,6 7,6 9,3 z"
           style="fill:#00ff00;stroke:#000000;stroke-width:7;stroke-linecap:round;stroke-linejoin:bevel;stroke-miterlimit:10;stroke-dasharray:none;stroke-opacity:1"
           id="path272"
           inkscape:connector-curvature="0" />
      </g>
      <g
         id="g274"
         transform="matrix(0.12,0,0,-0.12,6,837.39)"
         style="fill:#00ff00">
        <path
           d="m 2142,3894 9,-1 9,-3 7,-6 6,-6 5,-9 2,-8 v -10 l -2,-8 -5,-9 -6,-6 -7,-6 -9,-3 -9,-1 -9,1 -9,3 -7,6 -6,6 -5,9 -2,8 v 10 l 2,8 5,9 6,6 7,6 9,3 z"
           style="fill:#00ff00;stroke:#000000;stroke-width:7;stroke-linecap:round;stroke-linejoin:bevel;stroke-miterlimit:10;stroke-dasharray:none;stroke-opacity:1"
           id="path276"
           inkscape:connector-curvature="0" />
      </g>
      <g
         id="g278"
         transform="matrix(0.12,0,0,-0.12,6,837.39)">
        <path
           d="m 1273,2820 v -874 m 0,-78 v -674 m -1,-331 V 118 m 1,5608 V 3146 m 1762,623 v -623"
           style="fill:none;stroke:#000000;stroke-width:7;stroke-linecap:round;stroke-linejoin:round;stroke-miterlimit:10;stroke-dasharray:none;stroke-opacity:1"
           id="path280"
           inkscape:connector-curvature="0" />
      </g>
      <path
         d="m 370.2,379.35 -1.56,10.44 h 3.12 z"
         style="fill:#000000;fill-opacity:1;fill-rule:evenodd;stroke:none"
         id="path282"
         inkscape:connector-curvature="0" />
      <g
         id="g284"
         transform="matrix(0.12,0,0,-0.12,6,837.39)">
        <path
           d="M 3035,2820 V 1946"
           style="fill:none;stroke:#000000;stroke-width:7;stroke-linecap:round;stroke-linejoin:round;stroke-miterlimit:10;stroke-dasharray:none;stroke-opacity:1"
           id="path286"
           inkscape:connector-curvature="0" />
      </g>
      <path
         d="m 370.2,492.51 -1.56,10.32 h 3.12 z"
         style="fill:#000000;fill-opacity:1;fill-rule:evenodd;stroke:none"
         id="path288"
         inkscape:connector-curvature="0" />
      <text
         xml:space="preserve"
         transform="matrix(0,-1,-1,0,0,0)"
         style="font-variant:normal;font-weight:normal;font-size:18.95999908px;font-family:Symbol;-inkscape-font-specification:Symbol;writing-mode:lr-tb;fill:#000000;fill-opacity:1;fill-rule:nonzero;stroke:none"
         id="text292"
         x="-367.22977"
         y="-363.24432"><tspan
           x="-367.22977"
           y="-363.24432"
           id="tspan290">q<tspan
   style="font-size:6px"
   id="tspan897">к</tspan></tspan></text>
      <text
         xml:space="preserve"
         transform="matrix(0,-1,-1,0,0,0)"
         style="font-variant:normal;font-weight:normal;font-size:18.95999908px;font-family:Symbol;-inkscape-font-specification:Symbol;writing-mode:lr-tb;fill:#000000;fill-opacity:1;fill-rule:nonzero;stroke:none"
         id="text296"
         x="-486.03311"
         y="-380.04288"><tspan
           x="-486.03311"
           y="-380.04288"
           id="tspan294">l<tspan
   style="font-size:6px"
   id="tspan899">3к</tspan></tspan></text>
      <g
         id="g302"
         transform="matrix(0.12,0,0,-0.12,6,837.39)"
         style="fill:#00ff00">
        <path
           d="m 3035,3894 9,-1 9,-3 7,-6 6,-6 5,-9 2,-8 v -10 l -2,-8 -5,-9 -6,-6 -7,-6 -9,-3 -9,-1 -9,1 -9,3 -7,6 -6,6 -5,9 -2,8 v 10 l 2,8 5,9 6,6 7,6 9,3 z"
           style="fill:#00ff00;stroke:#000000;stroke-width:7;stroke-linecap:round;stroke-linejoin:bevel;stroke-miterlimit:10;stroke-dasharray:none;stroke-opacity:1"
           id="path304"
           inkscape:connector-curvature="0" />
      </g>
      <path
         d="m 365.52,823.23 -10.44,-1.56 v 3.12 z"
         style="fill:#000000;fill-opacity:1;fill-rule:evenodd;stroke:none"
         id="path310"
         inkscape:connector-curvature="0" />
      <text
         xml:space="preserve"
         transform="matrix(0,-1,-1,0,0,0)"
         style="font-variant:normal;font-weight:normal;font-size:18.95999908px;font-family:Symbol;-inkscape-font-specification:Symbol;writing-mode:lr-tb;fill:#000000;fill-opacity:1;fill-rule:nonzero;stroke:none"
         id="text314"
         x="-723.26062"
         y="-168.71472"><tspan
           x="-723.26062"
           y="-168.71472"
           id="tspan312">l<tspan
   style="font-size:6px"
   id="tspan784">р2</tspan></tspan></text>
      <g
         id="g316"
         transform="matrix(0.12,0,0,-0.12,6,837.39)">
        <path
           d="M 3841,3856 H 3617"
           style="fill:none;stroke:#000000;stroke-width:7;stroke-linecap:round;stroke-linejoin:round;stroke-miterlimit:10;stroke-dasharray:none;stroke-opacity:1"
           id="path318"
           inkscape:connector-curvature="0" />
      </g>
      <path
         d="m 472.68,374.67 -10.44,-1.44 v 3.12 z"
         style="fill:#000000;fill-opacity:1;fill-rule:evenodd;stroke:none"
         id="path320"
         inkscape:connector-curvature="0" />
      <g
         id="g322"
         transform="matrix(0.12,0,0,-0.12,6,837.39)">
        <path
           d="M 3298,3856 H 3074"
           style="fill:none;stroke:#000000;stroke-width:7;stroke-linecap:round;stroke-linejoin:round;stroke-miterlimit:10;stroke-dasharray:none;stroke-opacity:1"
           id="path324"
           inkscape:connector-curvature="0" />
      </g>
      <path
         d="m 407.4,374.67 -10.44,-1.44 v 3 z"
         style="fill:#000000;fill-opacity:1;fill-rule:evenodd;stroke:none"
         id="path326"
         inkscape:connector-curvature="0" />
      <text
         xml:space="preserve"
         transform="matrix(0,-1,-1,0,0,0)"
         style="font-variant:normal;font-weight:normal;font-size:18.95999908px;font-family:Symbol;-inkscape-font-specification:Symbol;writing-mode:lr-tb;fill:#000000;fill-opacity:1;fill-rule:nonzero;stroke:none"
         id="text330"
         x="-365.90256"
         y="-421.67905"><tspan
           x="-365.90256"
           y="-421.67905"
           id="tspan328">l<tspan
   style="font-size:6px"
   id="tspan895">к0</tspan></tspan></text>
      <g
         id="g332"
         transform="matrix(0.12,0,0,-0.12,6,837.39)"
         style="fill:#00ff00">
        <path
           d="m 3928,3894 9,-1 9,-3 7,-6 6,-6 5,-9 2,-8 v -10 l -2,-8 -5,-9 -6,-6 -7,-6 -9,-3 -9,-1 -9,1 -9,3 -7,6 -6,6 -5,9 -2,8 v 10 l 2,8 5,9 6,6 7,6 9,3 z"
           style="fill:#00ff00;stroke:#000000;stroke-width:7;stroke-linecap:round;stroke-linejoin:bevel;stroke-miterlimit:10;stroke-dasharray:none;stroke-opacity:1"
           id="path334"
           inkscape:connector-curvature="0" />
      </g>
      <g
         id="g336"
         transform="matrix(0.12,0,0,-0.12,6,837.39)"
         style="fill:#00ff00">
        <path
           d="m 3928,156 9,-1 9,-3 7,-6 6,-6 5,-9 2,-8 v -10 l -2,-8 -5,-9 -6,-6 -7,-6 -9,-3 -9,-1 -9,1 -9,3 -7,6 -6,6 -5,9 -2,8 v 10 l 2,8 5,9 6,6 7,6 9,3 z"
           style="fill:#00ff00;stroke:#000000;stroke-width:7;stroke-linecap:round;stroke-linejoin:bevel;stroke-miterlimit:10;stroke-dasharray:none;stroke-opacity:1"
           id="path338"
           inkscape:connector-curvature="0" />
      </g>
      <g
         id="g340"
         transform="matrix(0.12,0,0,-0.12,6,837.39)">
        <path
           d="M 3840,118 H 3617"
           style="fill:none;stroke:#000000;stroke-width:7;stroke-linecap:round;stroke-linejoin:round;stroke-miterlimit:10;stroke-dasharray:none;stroke-opacity:1"
           id="path342"
           inkscape:connector-curvature="0" />
      </g>
      <path
         d="m 472.68,823.23 -10.44,-1.56 v 3.12 z"
         style="fill:#000000;fill-opacity:1;fill-rule:evenodd;stroke:none"
         id="path344"
         inkscape:connector-curvature="0" />
      <g
         id="g346"
         transform="matrix(0.12,0,0,-0.12,6,837.39)">
        <path
           d="M 3300,118 H 3074"
           style="fill:none;stroke:#000000;stroke-width:7;stroke-linecap:round;stroke-linejoin:round;stroke-miterlimit:10;stroke-dasharray:none;stroke-opacity:1"
           id="path348"
           inkscape:connector-curvature="0" />
      </g>
      <path
         d="m 407.4,823.23 -10.32,-1.56 v 3.12 z"
         style="fill:#000000;fill-opacity:1;fill-rule:evenodd;stroke:none"
         id="path350"
         inkscape:connector-curvature="0" />
      <text
         xml:space="preserve"
         transform="matrix(0,-1,-1,0,0,0)"
         style="font-variant:normal;font-weight:normal;font-size:18.95999908px;font-family:Symbol;-inkscape-font-specification:Symbol;writing-mode:lr-tb;fill:#000000;fill-opacity:1;fill-rule:nonzero;stroke:none"
         id="text354"
         x="-814.47717"
         y="-421.67905"><tspan
           x="-814.47717"
           y="-421.67905"
           id="tspan352">l<tspan
   style="font-size:6px"
   id="tspan792">10</tspan></tspan></text>
      <text
         xml:space="preserve"
         transform="matrix(0,-1,-1,0,0,0)"
         style="font-variant:normal;font-weight:normal;font-size:18.95999908px;font-family:Symbol;-inkscape-font-specification:Symbol;writing-mode:lr-tb;fill:#000000;fill-opacity:1;fill-rule:nonzero;stroke:none"
         id="text362"
         x="-820.46857"
         y="-481.55472"><tspan
           x="-820.46857"
           y="-481.55472"
           id="tspan360">q<tspan
   style="font-size:6px"
   id="tspan786">0</tspan></tspan></text>
      <text
         xml:space="preserve"
         transform="matrix(0,-1,-1,0,0,0)"
         style="font-variant:normal;font-weight:normal;font-size:18.95999908px;font-family:Symbol;-inkscape-font-specification:Symbol;writing-mode:lr-tb;fill:#000000;fill-opacity:1;fill-rule:nonzero;stroke:none"
         id="text366"
         x="-136.58134"
         y="-484.20911"><tspan
           x="-136.58134"
           y="-484.20911"
           id="tspan364">q<tspan
   style="font-size:6px"
   id="tspan905">0</tspan></tspan></text>
      <g
         id="g376"
         transform="matrix(0.12,0,0,-0.12,6,837.39)">
        <path
           d="M 2103,118 H 1272"
           style="fill:none;stroke:#000000;stroke-width:7;stroke-linecap:round;stroke-linejoin:round;stroke-miterlimit:10;stroke-dasharray:none;stroke-opacity:1"
           id="path378"
           inkscape:connector-curvature="0" />
      </g>
      <path
         d="m 120.48,492.51 -1.56,10.32 h 3.12 z"
         style="fill:#000000;fill-opacity:1;fill-rule:evenodd;stroke:none"
         id="path380"
         inkscape:connector-curvature="0" />
      <text
         xml:space="preserve"
         transform="matrix(0,-1,-1,0,0,0)"
         style="font-variant:normal;font-weight:normal;font-size:18.95999908px;font-family:Symbol;-inkscape-font-specification:Symbol;writing-mode:lr-tb;fill:#000000;fill-opacity:1;fill-rule:nonzero;stroke:none"
         id="text384"
         x="-482.18423"
         y="-130.43448"><tspan
           x="-482.18423"
           y="-130.43448"
           id="tspan382">l<tspan
   style="font-size:6px"
   id="tspan919">р5</tspan></tspan></text>
      <g
         id="g390"
         transform="matrix(0.12,0,0,-0.12,6,837.39)">
        <path
           d="m 954,2821 v -914 m 0,4946 V 3146 M 1234,1907 H 954"
           style="fill:none;stroke:#000000;stroke-width:7;stroke-linecap:round;stroke-linejoin:round;stroke-miterlimit:10;stroke-dasharray:none;stroke-opacity:1"
           id="path392"
           inkscape:connector-curvature="0" />
      </g>
      <g
         id="g394"
         transform="matrix(0.12,0,0,-0.12,6,837.39)">
        <path
           d="M 954,6853 H 2142 V 5914"
           style="fill:none;stroke:#000000;stroke-width:7;stroke-linecap:round;stroke-linejoin:round;stroke-miterlimit:10;stroke-dasharray:none;stroke-opacity:1"
           id="path396"
           inkscape:connector-curvature="0" />
      </g>
      <path
         d="m 263.04,133.35 1.56,-10.32 h -3.12 z"
         style="fill:#000000;fill-opacity:1;fill-rule:evenodd;stroke:none"
         id="path398"
         inkscape:connector-curvature="0" />
      <g
         id="g452"
         transform="matrix(0.12,0,0,-0.12,6,837.39)"
         style="fill:#00ff00">
        <path
           d="M 2724,166 H 2452 V 71 h 272 z"
           style="fill:#00ff00;stroke:#000000;stroke-width:7;stroke-linecap:round;stroke-linejoin:round;stroke-miterlimit:10;stroke-dasharray:none;stroke-opacity:1"
           id="path454"
           inkscape:connector-curvature="0" />
      </g>
      <g
         id="g456"
         transform="matrix(0.12,0,0,-0.12,6,837.39)"
         style="fill:#00ff00">
        <path
           d="M 3617,166 H 3345 V 71 h 272 z"
           style="fill:#00ff00;stroke:#000000;stroke-width:7;stroke-linecap:round;stroke-linejoin:round;stroke-miterlimit:10;stroke-dasharray:none;stroke-opacity:1"
           id="path458"
           inkscape:connector-curvature="0" />
      </g>
      <g
         id="g460"
         transform="matrix(0.12,0,0,-0.12,6,837.39)"
         style="fill:#00ff00">
        <path
           d="m 3618,1955 h -272 v -95 h 272 z"
           style="fill:#00ff00;stroke:#000000;stroke-width:7;stroke-linecap:round;stroke-linejoin:round;stroke-miterlimit:10;stroke-dasharray:none;stroke-opacity:1"
           id="path462"
           inkscape:connector-curvature="0" />
      </g>
      <g
         id="g464"
         transform="matrix(0.12,0,0,-0.12,6,837.39)"
         style="fill:#00ff00">
        <path
           d="m 3617,3903 h -272 v -95 h 272 z"
           style="fill:#00ff00;stroke:#000000;stroke-width:7;stroke-linecap:round;stroke-linejoin:round;stroke-miterlimit:10;stroke-dasharray:none;stroke-opacity:1"
           id="path466"
           inkscape:connector-curvature="0" />
      </g>
      <g
         id="g468"
         transform="matrix(0.12,0,0,-0.12,6,837.39)"
         style="fill:#00ff00">
        <path
           d="m 3617,5875 h -272 v -95 h 272 z"
           style="fill:#00ff00;stroke:#000000;stroke-width:7;stroke-linecap:round;stroke-linejoin:round;stroke-miterlimit:10;stroke-dasharray:none;stroke-opacity:1"
           id="path470"
           inkscape:connector-curvature="0" />
      </g>
      <g
         id="g472"
         transform="matrix(0.12,0,0,-0.12,6,837.39)"
         style="fill:#00ff00">
        <path
           d="m 2987,3146 v -272 h 95 v 272 z"
           style="fill:#00ff00;stroke:#000000;stroke-width:7;stroke-linecap:round;stroke-linejoin:round;stroke-miterlimit:10;stroke-dasharray:none;stroke-opacity:1"
           id="path474"
           inkscape:connector-curvature="0" />
      </g>
      <g
         id="g476"
         transform="matrix(0.12,0,0,-0.12,6,837.39)"
         style="fill:#00ff00">
        <path
           d="m 2725,1955 h -272 v -96 h 272 v 1"
           style="fill:#00ff00;stroke:#000000;stroke-width:7;stroke-linecap:round;stroke-linejoin:round;stroke-miterlimit:10;stroke-dasharray:none;stroke-opacity:1"
           id="path478"
           inkscape:connector-curvature="0" />
      </g>
      <g
         id="g480"
         transform="matrix(0.12,0,0,-0.12,6,837.39)">
        <path
           d="m 2725,1859 v 96"
           style="fill:none;stroke:#000000;stroke-width:7;stroke-linecap:round;stroke-linejoin:round;stroke-miterlimit:10;stroke-dasharray:none;stroke-opacity:1"
           id="path482"
           inkscape:connector-curvature="0" />
      </g>
      <g
         id="g484"
         transform="matrix(0.12,0,0,-0.12,6,837.39)"
         style="fill:#00ff00">
        <path
           d="M 2094,1135 V 863 h 96 v 272 h -1"
           style="fill:#00ff00;stroke:#000000;stroke-width:7;stroke-linecap:round;stroke-linejoin:round;stroke-miterlimit:10;stroke-dasharray:none;stroke-opacity:1"
           id="path486"
           inkscape:connector-curvature="0" />
      </g>
      <g
         id="g488"
         transform="matrix(0.12,0,0,-0.12,6,837.39)">
        <path
           d="m 2190,1135 h -96"
           style="fill:none;stroke:#000000;stroke-width:7;stroke-linecap:round;stroke-linejoin:round;stroke-miterlimit:10;stroke-dasharray:none;stroke-opacity:1"
           id="path490"
           inkscape:connector-curvature="0" />
      </g>
      <path
         d="m 158.76,701.19 1.56,-10.44 h -3.12 z"
         style="fill:#000000;fill-opacity:1;fill-rule:evenodd;stroke:none"
         id="path492"
         inkscape:connector-curvature="0" />
      <g
         id="g494"
         transform="matrix(0.12,0,0,-0.12,6,837.39)"
         style="fill:#00ff00">
        <path
           d="M 1225,1135 V 863 h 95 v 272 z"
           style="fill:#00ff00;stroke:#000000;stroke-width:7;stroke-linecap:round;stroke-linejoin:round;stroke-miterlimit:10;stroke-dasharray:none;stroke-opacity:1"
           id="path496"
           inkscape:connector-curvature="0" />
      </g>
      <g
         id="g498"
         transform="matrix(0.12,0,0,-0.12,6,837.39)"
         style="fill:#00ff00">
        <path
           d="m 2094,3146 v -272 h 95 v 272 z"
           style="fill:#00ff00;stroke:#000000;stroke-width:7;stroke-linecap:round;stroke-linejoin:round;stroke-miterlimit:10;stroke-dasharray:none;stroke-opacity:1"
           id="path500"
           inkscape:connector-curvature="0" />
      </g>
      <g
         id="g502"
         transform="matrix(0.12,0,0,-0.12,6,837.39)"
         style="fill:#00ff00">
        <path
           d="m 2094,4896 v -272 h 95 v 272 z"
           style="fill:#00ff00;stroke:#000000;stroke-width:7;stroke-linecap:round;stroke-linejoin:round;stroke-miterlimit:10;stroke-dasharray:none;stroke-opacity:1"
           id="path504"
           inkscape:connector-curvature="0" />
      </g>
      <g
         id="g506"
         transform="matrix(0.12,0,0,-0.12,6,837.39)"
         style="fill:#00ff00">
        <path
           d="m 1843,5875 h -272 v -95 h 272 z"
           style="fill:#00ff00;stroke:#000000;stroke-width:7;stroke-linecap:round;stroke-linejoin:round;stroke-miterlimit:10;stroke-dasharray:none;stroke-opacity:1"
           id="path508"
           inkscape:connector-curvature="0" />
      </g>
      <g
         id="g510"
         transform="matrix(0.12,0,0,-0.12,6,837.39)"
         style="fill:#00ff00">
        <path
           d="m 1843,1955 h -272 v -95 h 272 z"
           style="fill:#00ff00;stroke:#000000;stroke-width:7;stroke-linecap:round;stroke-linejoin:round;stroke-miterlimit:10;stroke-dasharray:none;stroke-opacity:1"
           id="path512"
           inkscape:connector-curvature="0" />
      </g>
      <g
         id="g514"
         transform="matrix(0.12,0,0,-0.12,6,837.39)"
         style="fill:#00ff00">
        <path
           d="m 1225,3146 v -272 h 95 v 272 z"
           style="fill:#00ff00;stroke:#000000;stroke-width:7;stroke-linecap:round;stroke-linejoin:round;stroke-miterlimit:10;stroke-dasharray:none;stroke-opacity:1"
           id="path516"
           inkscape:connector-curvature="0" />
      </g>
      <g
         id="g518"
         transform="matrix(0.12,0,0,-0.12,6,837.39)"
         style="fill:#00ff00">
        <path
           d="m 906,3146 v -272 h 96 v 272 z"
           style="fill:#00ff00;stroke:#000000;stroke-width:7;stroke-linecap:round;stroke-linejoin:round;stroke-miterlimit:10;stroke-dasharray:none;stroke-opacity:1"
           id="path520"
           inkscape:connector-curvature="0" />
      </g>
    </g>
  </g>
</svg>
