<?xml version="1.0" encoding="UTF-8" standalone="no"?>
<!-- Created with Inkscape (http://www.inkscape.org/) -->

<svg
   xmlns:dc="http://purl.org/dc/elements/1.1/"
   xmlns:cc="http://creativecommons.org/ns#"
   xmlns:rdf="http://www.w3.org/1999/02/22-rdf-syntax-ns#"
   xmlns:svg="http://www.w3.org/2000/svg"
   xmlns="http://www.w3.org/2000/svg"
   xmlns:sodipodi="http://sodipodi.sourceforge.net/DTD/sodipodi-0.dtd"
   xmlns:inkscape="http://www.inkscape.org/namespaces/inkscape"
   version="1.1"
   id="svg4518"
   xml:space="preserve"
   width="717.17596"
   height="630.90942"
   viewBox="0 0 717.17596 630.90941"
   sodipodi:docname="tepl_scheme.svg"
   inkscape:version="0.92.4 (5da689c313, 2019-01-14)"><metadata
     id="metadata4524"><rdf:RDF><cc:Work
         rdf:about=""><dc:format>image/svg+xml</dc:format><dc:type
           rdf:resource="http://purl.org/dc/dcmitype/StillImage" /><dc:title></dc:title></cc:Work></rdf:RDF></metadata><defs
     id="defs4522" /><sodipodi:namedview
     pagecolor="#ffffff"
     bordercolor="#666666"
     borderopacity="1"
     objecttolerance="10"
     gridtolerance="10"
     guidetolerance="10"
     inkscape:pageopacity="0"
     inkscape:pageshadow="2"
     inkscape:window-width="3840"
     inkscape:window-height="2066"
     id="namedview4520"
     showgrid="false"
     fit-margin-top="0"
     fit-margin-left="5.1"
     fit-margin-right="4.1"
     fit-margin-bottom="0"
     inkscape:zoom="6.5673662"
     inkscape:cx="50.518417"
     inkscape:cy="326.11138"
     inkscape:window-x="-11"
     inkscape:window-y="-11"
     inkscape:window-maximized="1"
     inkscape:current-layer="g4526" /><g
     id="g4526"
     inkscape:groupmode="layer"
     inkscape:label="scheme Model (1)"
     transform="matrix(1.3333333,0,0,-1.3333333,-51.432023,881.34938)"><text
       transform="scale(1,-1)"
       style="font-variant:normal;font-weight:normal;font-size:22.79999924px;font-family:Symbol;-inkscape-font-specification:Symbol;writing-mode:lr-tb;fill:#000000;fill-opacity:1;fill-rule:nonzero;stroke:none"
       id="text4530"
       x="208.086"
       y="-638.30762"><tspan
         x="208.086"
         y="-638.30762"
         id="tspan4528">q<tspan
   style="font-size:8.0000002px;-inkscape-font-specification:Arial;font-family:Arial;font-weight:normal;font-style:normal;font-stretch:normal;font-variant:normal"
   id="tspan5094">0</tspan></tspan></text>
<g
       id="g4532"
       transform="matrix(0.12,0,0,-0.12,3,849.39)"
       style="fill:#66ff00"><path
         d="m 1688,1801 -1,-10 -4,-10 -5,-9 -7,-7 -9,-5 -10,-4 -10,-1 -10,1 -10,4 -9,5 -7,7 -5,9 -4,10 -1,10 1,10 4,10 5,9 7,7 9,5 10,4 10,1 10,-1 10,-4 9,-5 7,-7 5,-9 4,-10 z"
         style="fill:#66ff00;stroke:#000000;stroke-width:7;stroke-linecap:round;stroke-linejoin:bevel;stroke-miterlimit:10;stroke-dasharray:none;stroke-opacity:1"
         id="path4534"
         inkscape:connector-curvature="0" /></g><text
       transform="scale(1,-1)"
       style="font-variant:normal;font-weight:normal;font-size:22.79999924px;font-family:Symbol;-inkscape-font-specification:Symbol;writing-mode:lr-tb;fill:#000000;fill-opacity:1;fill-rule:nonzero;stroke:none"
       id="text4538"
       x="203.526"
       y="-509.784"><tspan
         x="203.526"
         y="-509.784"
         id="tspan4536">q<tspan
   style="font-size:8.0000002px;-inkscape-font-specification:Arial;font-family:Arial;font-weight:normal;font-style:normal;font-stretch:normal;font-variant:normal"
   id="tspan5090">3</tspan></tspan></text>
<g
       id="g4540"
       transform="matrix(0.12,0,0,-0.12,3,849.39)"
       style="fill:#66ff00"><path
         d="m 1688,2879 -1,-10 -4,-10 -5,-9 -7,-7 -9,-5 -10,-4 -10,-1 -10,1 -10,4 -9,5 -7,7 -5,9 -4,10 -1,10 1,10 4,10 5,9 7,7 9,5 10,4 10,1 10,-1 10,-4 9,-5 7,-7 5,-9 4,-10 z"
         style="fill:#66ff00;stroke:#000000;stroke-width:7;stroke-linecap:round;stroke-linejoin:bevel;stroke-miterlimit:10;stroke-dasharray:none;stroke-opacity:1"
         id="path4542"
         inkscape:connector-curvature="0" /></g><g
       id="g4544"
       transform="matrix(0.12,0,0,-0.12,3,849.39)"><path
         d="m 1642,1919 v 257"
         style="fill:none;stroke:#000000;stroke-width:7;stroke-linecap:round;stroke-linejoin:round;stroke-miterlimit:10;stroke-dasharray:none;stroke-opacity:1"
         id="path4546"
         inkscape:connector-curvature="0" /></g><path
       d="m 200.04,627.63 1.8,-12.6 h -3.72 z"
       style="fill:#000000;fill-opacity:1;fill-rule:evenodd;stroke:none"
       id="path4548"
       inkscape:connector-curvature="0" /><g
       id="g4550"
       transform="matrix(0.12,0,0,-0.12,3,849.39)"><path
         d="m 1642,2561 v 271"
         style="fill:none;stroke:#000000;stroke-width:7;stroke-linecap:round;stroke-linejoin:round;stroke-miterlimit:10;stroke-dasharray:none;stroke-opacity:1"
         id="path4552"
         inkscape:connector-curvature="0" /></g><path
       d="m 200.04,548.91 1.8,-12.6 h -3.72 z"
       style="fill:#000000;fill-opacity:1;fill-rule:evenodd;stroke:none"
       id="path4554"
       inkscape:connector-curvature="0" /><text
       transform="scale(1,-1)"
       style="font-variant:normal;font-weight:normal;font-size:22.79999924px;font-family:Symbol;-inkscape-font-specification:Symbol;writing-mode:lr-tb;fill:#000000;fill-opacity:1;fill-rule:nonzero;stroke:none"
       id="text4558"
       x="202.0896"
       y="-379.11719"><tspan
         x="202.0896"
         y="-379.11719"
         id="tspan4556">q<tspan
   style="font-size:8.0000002px;-inkscape-font-specification:Arial;font-family:Arial;font-weight:normal;font-style:normal;font-stretch:normal;font-variant:normal"
   id="tspan5086">с</tspan></tspan></text>
<g
       id="g4560"
       transform="matrix(0.12,0,0,-0.12,3,849.39)"><path
         d="m 1642,2979 v 274"
         style="fill:none;stroke:#000000;stroke-width:7;stroke-linecap:round;stroke-linejoin:round;stroke-miterlimit:10;stroke-dasharray:none;stroke-opacity:1"
         id="path4562"
         inkscape:connector-curvature="0" /></g><path
       d="m 200.04,498.27 1.8,-12.6 h -3.72 z"
       style="fill:#000000;fill-opacity:1;fill-rule:evenodd;stroke:none"
       id="path4564"
       inkscape:connector-curvature="0" /><g
       id="g4566"
       transform="matrix(0.12,0,0,-0.12,3,849.39)"><path
         d="m 1642,3634 v 275"
         style="fill:none;stroke:#000000;stroke-width:7;stroke-linecap:round;stroke-linejoin:round;stroke-miterlimit:10;stroke-dasharray:none;stroke-opacity:1"
         id="path4568"
         inkscape:connector-curvature="0" /></g><path
       d="m 200.04,419.67 1.8,-12.6 h -3.72 z"
       style="fill:#000000;fill-opacity:1;fill-rule:evenodd;stroke:none"
       id="path4570"
       inkscape:connector-curvature="0" /><text
       transform="scale(1,-1)"
       style="font-variant:normal;font-weight:normal;font-size:22.79999924px;font-family:Symbol;-inkscape-font-specification:Symbol;writing-mode:lr-tb;fill:#000000;fill-opacity:1;fill-rule:nonzero;stroke:none"
       id="text4574"
       x="211.9164"
       y="-566.07721"><tspan
         x="211.9164"
         y="-566.07721"
         id="tspan4572">l<tspan
   style="font-size:8.0000002px;-inkscape-font-specification:Arial;font-family:Arial;font-weight:normal;font-style:normal;font-stretch:normal;font-variant:normal"
   id="tspan5092">30</tspan></tspan></text>
<text
       transform="scale(1,-1)"
       style="font-variant:normal;font-weight:normal;font-size:22.79999924px;font-family:Symbol;-inkscape-font-specification:Symbol;writing-mode:lr-tb;fill:#000000;fill-opacity:1;fill-rule:nonzero;stroke:none"
       id="text4582"
       x="213.1248"
       y="-432.62881"><tspan
         x="213.1248"
         y="-432.62881"
         id="tspan4580">l<tspan
   style="font-size:8.0000002px;-inkscape-font-specification:Arial;font-family:Arial;font-weight:normal;font-style:normal;font-stretch:normal;font-variant:normal"
   id="tspan5088">с3</tspan></tspan></text>
<g
       id="g4588"
       transform="matrix(0.12,0,0,-0.12,3,849.39)"
       style="fill:#66ff00"><path
         d="m 1688,3956 -1,-10 -4,-10 -5,-9 -7,-7 -9,-5 -10,-4 -10,-1 -10,1 -10,4 -9,5 -7,7 -5,9 -4,10 -1,10 1,10 4,10 5,9 7,7 9,5 10,4 10,1 10,-1 10,-4 9,-5 7,-7 5,-9 4,-10 z"
         style="fill:#66ff00;stroke:#000000;stroke-width:7;stroke-linecap:round;stroke-linejoin:bevel;stroke-miterlimit:10;stroke-dasharray:none;stroke-opacity:1"
         id="path4590"
         inkscape:connector-curvature="0" /></g><g
       id="g4592"
       transform="matrix(0.12,0,0,-0.12,3,849.39)"><path
         d="M 3012,3956 H 2764"
         style="fill:none;stroke:#000000;stroke-width:7;stroke-linecap:round;stroke-linejoin:round;stroke-miterlimit:10;stroke-dasharray:none;stroke-opacity:1"
         id="path4594"
         inkscape:connector-curvature="0" /></g><path
       d="m 372.36,374.67 -12.48,-1.92 v 3.84 z"
       style="fill:#000000;fill-opacity:1;fill-rule:evenodd;stroke:none"
       id="path4596"
       inkscape:connector-curvature="0" /><g
       id="g4598"
       transform="matrix(0.12,0,0,-0.12,3,849.39)"><path
         d="M 2370,3956 H 1689"
         style="fill:none;stroke:#000000;stroke-width:7;stroke-linecap:round;stroke-linejoin:round;stroke-miterlimit:10;stroke-dasharray:none;stroke-opacity:1"
         id="path4600"
         inkscape:connector-curvature="0" /></g><path
       d="m 295.44,374.67 -12.6,-1.92 v 3.84 z"
       style="fill:#000000;fill-opacity:1;fill-rule:evenodd;stroke:none"
       id="path4602"
       inkscape:connector-curvature="0" /><text
       transform="scale(1,-1)"
       style="font-variant:normal;font-weight:normal;font-size:22.79999924px;font-family:Symbol;-inkscape-font-specification:Symbol;writing-mode:lr-tb;fill:#000000;fill-opacity:1;fill-rule:nonzero;stroke:none"
       id="text4606"
       x="372.10919"
       y="-382.9476"><tspan
         x="372.10919"
         y="-382.9476"
         id="tspan4604">q<tspan
   style="font-size:8.0000002px;-inkscape-font-specification:Arial;font-family:Arial;font-weight:normal;font-style:normal;font-stretch:normal;font-variant:normal"
   id="tspan5106">4</tspan></tspan></text>
<g
       id="g4608"
       transform="matrix(0.12,0,0,-0.12,3,849.39)"><path
         d="M 4046,3956 H 3814"
         style="fill:none;stroke:#000000;stroke-width:7;stroke-linecap:round;stroke-linejoin:round;stroke-miterlimit:10;stroke-dasharray:none;stroke-opacity:1"
         id="path4610"
         inkscape:connector-curvature="0" /></g><path
       d="m 498.36,374.67 -12.6,-1.92 v 3.84 z"
       style="fill:#000000;fill-opacity:1;fill-rule:evenodd;stroke:none"
       id="path4612"
       inkscape:connector-curvature="0" /><g
       id="g4614"
       transform="matrix(0.12,0,0,-0.12,3,849.39)"><path
         d="M 3424,3956 H 3172"
         style="fill:none;stroke:#000000;stroke-width:7;stroke-linecap:round;stroke-linejoin:round;stroke-miterlimit:10;stroke-dasharray:none;stroke-opacity:1"
         id="path4616"
         inkscape:connector-curvature="0" /></g><path
       d="m 421.32,374.67 -12.6,-1.92 0.12,3.84 z"
       style="fill:#000000;fill-opacity:1;fill-rule:evenodd;stroke:none"
       id="path4618"
       inkscape:connector-curvature="0" /><text
       transform="scale(1,-1)"
       style="font-variant:normal;font-weight:normal;font-size:22.79999924px;font-family:Symbol;-inkscape-font-specification:Symbol;writing-mode:lr-tb;fill:#000000;fill-opacity:1;fill-rule:nonzero;stroke:none"
       id="text4622"
       x="510.0036"
       y="-382.9476"><tspan
         x="510.0036"
         y="-382.9476"
         id="tspan4620">q<tspan
   style="font-size:8.0000002px;-inkscape-font-specification:Arial;font-family:Arial;font-weight:normal;font-style:normal;font-stretch:normal;font-variant:normal"
   id="tspan5118">5</tspan></tspan></text>
<text
       transform="scale(1,-1)"
       style="font-variant:normal;font-weight:normal;font-size:22.79999924px;font-family:Symbol;-inkscape-font-specification:Symbol;writing-mode:lr-tb;fill:#000000;fill-opacity:1;fill-rule:nonzero;stroke:none"
       id="text4626"
       x="207.1284"
       y="-252.6228"><tspan
         x="207.1284"
         y="-252.6228"
         id="tspan4624">q<tspan
   style="font-size:8.0000002px;-inkscape-font-specification:Arial;font-family:Arial;font-weight:normal;font-style:normal;font-stretch:normal;font-variant:normal"
   id="tspan5082">р</tspan></tspan></text>
<g
       id="g4628"
       transform="matrix(0.12,0,0,-0.12,3,849.39)"
       style="fill:#66ff00"><path
         d="m 1688,5005 -1,-10 -4,-10 -5,-9 -7,-7 -9,-5 -10,-4 -10,-1 -10,1 -10,4 -9,5 -7,7 -5,9 -4,10 -1,10 1,10 4,10 5,9 7,7 9,5 10,4 10,1 10,-1 10,-4 9,-5 7,-7 5,-9 4,-10 z"
         style="fill:#66ff00;stroke:#000000;stroke-width:7;stroke-linecap:round;stroke-linejoin:bevel;stroke-miterlimit:10;stroke-dasharray:none;stroke-opacity:1"
         id="path4630"
         inkscape:connector-curvature="0" /></g><g
       id="g4632"
       transform="matrix(0.12,0,0,-0.12,3,849.39)"><path
         d="m 1642,4074 v 243"
         style="fill:none;stroke:#000000;stroke-width:7;stroke-linecap:round;stroke-linejoin:round;stroke-miterlimit:10;stroke-dasharray:none;stroke-opacity:1"
         id="path4634"
         inkscape:connector-curvature="0" /></g><path
       d="m 200.04,369.03 1.8,-12.6 h -3.72 z"
       style="fill:#000000;fill-opacity:1;fill-rule:evenodd;stroke:none"
       id="path4636"
       inkscape:connector-curvature="0" /><g
       id="g4638"
       transform="matrix(0.12,0,0,-0.12,3,849.39)"><path
         d="m 1642,4706 v 252"
         style="fill:none;stroke:#000000;stroke-width:7;stroke-linecap:round;stroke-linejoin:round;stroke-miterlimit:10;stroke-dasharray:none;stroke-opacity:1"
         id="path4640"
         inkscape:connector-curvature="0" /></g><path
       d="m 200.04,291.99 1.8,-12.48 h -3.72 z"
       style="fill:#000000;fill-opacity:1;fill-rule:evenodd;stroke:none"
       id="path4642"
       inkscape:connector-curvature="0" /><text
       transform="scale(1,-1)"
       style="font-variant:normal;font-weight:normal;font-size:22.79999924px;font-family:Symbol;-inkscape-font-specification:Symbol;writing-mode:lr-tb;fill:#000000;fill-opacity:1;fill-rule:nonzero;stroke:none"
       id="text4646"
       x="512.64844"
       y="-241.5876"><tspan
         x="512.64844"
         y="-241.5876"
         id="tspan4644">q<tspan
   style="font-size:8.0000002px;-inkscape-font-specification:Arial;font-family:Arial;font-weight:normal;font-style:normal;font-stretch:normal;font-variant:normal"
   id="tspan5124">в</tspan></tspan></text>
<path
       d="m 504.12,369.03 1.92,-12.6 h -3.72 z"
       style="fill:#000000;fill-opacity:1;fill-rule:evenodd;stroke:none"
       id="path4648"
       inkscape:connector-curvature="0" /><g
       id="g4650"
       transform="matrix(0.12,0,0,-0.12,3,849.39)"><path
         d="m 4176,4065 v 252 m 0,387 v 254"
         style="fill:none;stroke:#000000;stroke-width:7;stroke-linecap:round;stroke-linejoin:round;stroke-miterlimit:10;stroke-dasharray:none;stroke-opacity:1"
         id="path4652"
         inkscape:connector-curvature="0" /></g><path
       d="m 504.12,291.99 1.92,-12.6 h -3.84 z"
       style="fill:#000000;fill-opacity:1;fill-rule:evenodd;stroke:none"
       id="path4654"
       inkscape:connector-curvature="0" /><g
       id="g4656"
       transform="matrix(0.12,0,0,-0.12,3,849.39)"
       style="fill:#66ff00"><path
         d="m 4222,5005 -1,-10 -4,-10 -5,-9 -7,-7 -9,-5 -10,-4 -10,-1 -10,1 -10,4 -9,5 -7,7 -5,9 -4,10 -1,10 1,10 4,10 5,9 7,7 9,5 10,4 10,1 10,-1 10,-4 9,-5 7,-7 5,-9 4,-10 z"
         style="fill:#66ff00;stroke:#000000;stroke-width:7;stroke-linecap:round;stroke-linejoin:bevel;stroke-miterlimit:10;stroke-dasharray:none;stroke-opacity:1"
         id="path4658"
         inkscape:connector-curvature="0" /></g><path
       d="m 498.48,248.79 -12.6,-1.92 v 3.84 z"
       style="fill:#000000;fill-opacity:1;fill-rule:evenodd;stroke:none"
       id="path4660"
       inkscape:connector-curvature="0" /><path
       d="m 295.44,248.79 -12.6,-1.8 v 3.72 z"
       style="fill:#000000;fill-opacity:1;fill-rule:evenodd;stroke:none"
       id="path4662"
       inkscape:connector-curvature="0" /><g
       id="g4664"
       transform="matrix(0.12,0,0,-0.12,3,849.39)"><path
         d="M 500,3956 H 953"
         style="fill:none;stroke:#000000;stroke-width:7;stroke-linecap:round;stroke-linejoin:round;stroke-miterlimit:10;stroke-dasharray:none;stroke-opacity:1"
         id="path4666"
         inkscape:connector-curvature="0" /></g><path
       d="m 54.6,374.67 12.6,1.92 v -3.72 z"
       style="fill:#000000;fill-opacity:1;fill-rule:evenodd;stroke:none"
       id="path4668"
       inkscape:connector-curvature="0" /><g
       id="g4670"
       transform="matrix(0.12,0,0,-0.12,3,849.39)"><path
         d="m 1340,3956 h 255"
         style="fill:none;stroke:#000000;stroke-width:7;stroke-linecap:round;stroke-linejoin:round;stroke-miterlimit:10;stroke-dasharray:none;stroke-opacity:1"
         id="path4672"
         inkscape:connector-curvature="0" /></g><path
       d="m 156.72,374.67 12.6,1.92 v -3.72 z"
       style="fill:#000000;fill-opacity:1;fill-rule:evenodd;stroke:none"
       id="path4674"
       inkscape:connector-curvature="0" /><g
       id="g4684"
       transform="matrix(0.12,0,0,-0.12,3,849.39)" /><text
       transform="scale(1,-1)"
       style="font-variant:normal;font-weight:normal;font-size:22.79999924px;font-family:Symbol;-inkscape-font-specification:Symbol;writing-mode:lr-tb;fill:#000000;fill-opacity:1;fill-rule:nonzero;stroke:none"
       id="text4690"
       x="56.762402"
       y="-495.98999"><tspan
         x="56.762402"
         y="-495.98999"
         id="tspan4688">q<tspan
   style="font-size:8.0000002px;-inkscape-font-specification:Arial;font-family:Arial;font-weight:normal;font-style:normal;font-stretch:normal;font-variant:normal"
   id="tspan5054">1</tspan></tspan></text>
<g
       id="g4692"
       transform="matrix(0.12,0,0,-0.12,3,849.39)"
       style="fill:#66ff00"><path
         d="m 429,2879 -1,-10 -4,-10 -5,-9 -7,-7 -9,-5 -10,-4 -10,-1 -10,1 -10,4 -9,5 -7,7 -5,9 -4,10 -1,10 1,10 4,10 5,9 7,7 9,5 10,4 10,1 10,-1 10,-4 9,-5 7,-7 5,-9 4,-10 z"
         style="fill:#66ff00;stroke:#000000;stroke-width:7;stroke-linecap:round;stroke-linejoin:bevel;stroke-miterlimit:10;stroke-dasharray:none;stroke-opacity:1"
         id="path4694"
         inkscape:connector-curvature="0" /></g><g
       id="g4696"
       transform="matrix(0.12,0,0,-0.12,3,849.39)"><path
         d="m 383,2978 v 275 m 0,380 v 276"
         style="fill:none;stroke:#000000;stroke-width:7;stroke-linecap:round;stroke-linejoin:round;stroke-miterlimit:10;stroke-dasharray:none;stroke-opacity:1"
         id="path4698"
         inkscape:connector-curvature="0" /></g><path
       d="m 48.96,419.67 1.92,-12.6 h -3.84 z"
       style="fill:#000000;fill-opacity:1;fill-rule:evenodd;stroke:none"
       id="path4700"
       inkscape:connector-curvature="0" /><text
       transform="scale(1,-1)"
       style="font-variant:normal;font-weight:normal;font-size:22.79999924px;font-family:Symbol;-inkscape-font-specification:Symbol;writing-mode:lr-tb;fill:#000000;fill-opacity:1;fill-rule:nonzero;stroke:none"
       id="text4704"
       x="62.166"
       y="-432.62881"><tspan
         x="62.166"
         y="-432.62881"
         id="tspan4702">l<tspan
   style="font-size:8.0000002px;-inkscape-font-specification:Arial;font-family:Arial;font-weight:normal;font-style:normal;font-stretch:normal;font-variant:normal"
   id="tspan5056">21</tspan></tspan></text>
<g
       id="g4710"
       transform="matrix(0.12,0,0,-0.12,3,849.39)"><path
         d="M 4176,3909 V 2570 m 0,-393 V 1926 M 430,1801 h 1165 m 94,0 h 1389 m 94,1 h 957"
         style="fill:none;stroke:#000000;stroke-width:7;stroke-linecap:round;stroke-linejoin:round;stroke-miterlimit:10;stroke-dasharray:none;stroke-opacity:1"
         id="path4712"
         inkscape:connector-curvature="0" /></g><text
       transform="scale(1,-1)"
       style="font-variant:normal;font-weight:normal;font-size:22.79999924px;font-family:Symbol;-inkscape-font-specification:Symbol;writing-mode:lr-tb;fill:#000000;fill-opacity:1;fill-rule:nonzero;stroke:none"
       id="text4716"
       x="383.28119"
       y="-639.15118"><tspan
         x="383.28119"
         y="-639.15118"
         id="tspan4714">q<tspan
   style="font-size:8.0000002px;-inkscape-font-specification:Arial;font-family:Arial;font-weight:normal;font-style:normal;font-stretch:normal;font-variant:normal"
   id="tspan5096">0</tspan></tspan></text>
<g
       id="g4718"
       transform="matrix(0.12,0,0,-0.12,3,849.39)"
       style="fill:#66ff00"><path
         d="m 4222,1802 -1,-10 -4,-10 -5,-9 -7,-7 -9,-5 -10,-4 -10,-1 -10,1 -10,4 -9,5 -7,7 -5,9 -4,10 -1,10 1,10 4,10 5,9 7,7 9,5 10,4 10,1 10,-1 10,-4 9,-5 7,-7 5,-9 4,-10 z"
         style="fill:#66ff00;stroke:#000000;stroke-width:7;stroke-linecap:round;stroke-linejoin:bevel;stroke-miterlimit:10;stroke-dasharray:none;stroke-opacity:1"
         id="path4720"
         inkscape:connector-curvature="0" /></g><path
       d="m 504.12,548.79 1.92,-12.6 h -3.84 z"
       style="fill:#000000;fill-opacity:1;fill-rule:evenodd;stroke:none"
       id="path4722"
       inkscape:connector-curvature="0" /><path
       d="m 504.12,627.51 1.92,-12.6 h -3.84 z"
       style="fill:#000000;fill-opacity:1;fill-rule:evenodd;stroke:none"
       id="path4724"
       inkscape:connector-curvature="0" /><text
       transform="scale(1,-1)"
       style="font-variant:normal;font-weight:normal;font-size:22.79999924px;font-family:Symbol;-inkscape-font-specification:Symbol;writing-mode:lr-tb;fill:#000000;fill-opacity:1;fill-rule:nonzero;stroke:none"
       id="text4728"
       x="128.0352"
       y="-386.54999"><tspan
         x="128.0352"
         y="-386.54999"
         id="tspan4726">l<tspan
   style="font-size:8.0000002px;-inkscape-font-specification:Arial;font-family:Arial;font-weight:normal;font-style:normal;font-stretch:normal;font-variant:normal"
   id="tspan5080">с2</tspan></tspan></text>
<text
       transform="scale(1,-1)"
       style="font-variant:normal;font-weight:normal;font-size:22.79999924px;font-family:Symbol;-inkscape-font-specification:Symbol;writing-mode:lr-tb;fill:#000000;fill-opacity:1;fill-rule:nonzero;stroke:none"
       id="text4736"
       x="211.43761"
       y="-306.38519"><tspan
         x="211.43761"
         y="-306.38519"
         id="tspan4734">l<tspan
   style="font-size:8.0000002px;-inkscape-font-specification:Arial;font-family:Arial;font-weight:normal;font-style:normal;font-stretch:normal;font-variant:normal"
   id="tspan5084">рс</tspan></tspan></text>
<text
       transform="scale(1,-1)"
       style="font-variant:normal;font-weight:normal;font-size:22.79999924px;font-family:Symbol;-inkscape-font-specification:Symbol;writing-mode:lr-tb;fill:#000000;fill-opacity:1;fill-rule:nonzero;stroke:none"
       id="text4744"
       x="307.67639"
       y="-260.8992"><tspan
         x="307.67639"
         y="-260.8992"
         id="tspan4742">l<tspan
   style="font-size:8.0000002px;-inkscape-font-specification:Arial;font-family:Arial;font-weight:normal;font-style:normal;font-stretch:normal;font-variant:normal"
   id="tspan5126">рв</tspan></tspan></text>
<text
       transform="scale(1,-1)"
       style="font-variant:normal;font-weight:normal;font-size:22.79999924px;font-family:Symbol;-inkscape-font-specification:Symbol;writing-mode:lr-tb;fill:#000000;fill-opacity:1;fill-rule:nonzero;stroke:none"
       id="text4752"
       x="514.31281"
       y="-319.9512"><tspan
         x="514.31281"
         y="-319.9512"
         id="tspan4750">l<tspan
   style="font-size:8.0000002px;-inkscape-font-specification:Arial;font-family:Arial;font-weight:normal;font-style:normal;font-stretch:normal;font-variant:normal"
   id="tspan5122">в5</tspan></tspan></text>
<text
       transform="scale(1,-1)"
       style="font-variant:normal;font-weight:normal;font-size:22.79999924px;font-family:Symbol;-inkscape-font-specification:Symbol;writing-mode:lr-tb;fill:#000000;fill-opacity:1;fill-rule:nonzero;stroke:none"
       id="text4756"
       x="429.95279"
       y="-386.54999"><tspan
         x="429.95279"
         y="-386.54999"
         id="tspan4754">l<tspan
   style="font-size:8.0000002px;-inkscape-font-specification:Arial;font-family:Arial;font-weight:normal;font-style:normal;font-stretch:normal;font-variant:normal"
   id="tspan5116">45</tspan></tspan></text>
<text
       transform="scale(1,-1)"
       style="font-variant:normal;font-weight:normal;font-size:22.79999924px;font-family:Symbol;-inkscape-font-specification:Symbol;writing-mode:lr-tb;fill:#000000;fill-opacity:1;fill-rule:nonzero;stroke:none"
       id="text4764"
       x="304.80359"
       y="-386.54999"><tspan
         x="304.80359"
         y="-386.54999"
         id="tspan4762">l<tspan
   style="font-size:8.0000002px;-inkscape-font-specification:Arial;font-family:Arial;font-weight:normal;font-style:normal;font-stretch:normal;font-variant:normal"
   id="tspan5104">с4</tspan></tspan></text>
<text
       transform="scale(1,-1)"
       style="font-variant:normal;font-weight:normal;font-size:22.79999924px;font-family:Symbol;-inkscape-font-specification:Symbol;writing-mode:lr-tb;fill:#000000;fill-opacity:1;fill-rule:nonzero;stroke:none"
       id="text4772"
       x="513.97083"
       y="-565.94043"><tspan
         x="513.97083"
         y="-565.94043"
         id="tspan4770">l<tspan
   style="font-size:8.0000002px;-inkscape-font-specification:Arial;font-family:Arial;font-weight:normal;font-style:normal;font-stretch:normal;font-variant:normal"
   id="tspan5120">50</tspan></tspan></text>
<g
       id="g4782"
       transform="matrix(0.12,0,0,-0.12,3,849.39)"
       style="fill:#66ff00"><path
         d="m 429,3956 -1,-10 -4,-10 -5,-9 -7,-7 -9,-5 -10,-4 -10,-1 -10,1 -10,4 -9,5 -7,7 -5,9 -4,10 -1,10 1,10 4,10 5,9 7,7 9,5 10,4 10,1 10,-1 10,-4 9,-5 7,-7 5,-9 4,-10 z"
         style="fill:#66ff00;stroke:#000000;stroke-width:7;stroke-linecap:round;stroke-linejoin:bevel;stroke-miterlimit:10;stroke-dasharray:none;stroke-opacity:1"
         id="path4784"
         inkscape:connector-curvature="0" /></g><g
       id="g4786"
       transform="matrix(0.12,0,0,-0.12,3,849.39)"
       style="fill:#66ff00"><path
         d="m 4222,3956 -1,-10 -4,-10 -5,-9 -7,-7 -9,-5 -10,-4 -10,-1 -10,1 -10,4 -9,5 -7,7 -5,9 -4,10 -1,10 1,10 4,10 5,9 7,7 9,5 10,4 10,1 10,-1 10,-4 9,-5 7,-7 5,-9 4,-10 z"
         style="fill:#66ff00;stroke:#000000;stroke-width:7;stroke-linecap:round;stroke-linejoin:bevel;stroke-miterlimit:10;stroke-dasharray:none;stroke-opacity:1"
         id="path4788"
         inkscape:connector-curvature="0" /></g><g
       id="g4790"
       transform="matrix(0.12,0,0,-0.12,3,849.39)"
       style="fill:#66ff00"><path
         d="m 3171,3956 -1,-10 -4,-10 -5,-9 -7,-7 -9,-5 -10,-4 -10,-1 -10,1 -10,4 -9,5 -7,7 -5,9 -4,10 -1,10 1,10 4,10 5,9 7,7 9,5 10,4 10,1 10,-1 10,-4 9,-5 7,-7 5,-9 4,-10 z"
         style="fill:#66ff00;stroke:#000000;stroke-width:7;stroke-linecap:round;stroke-linejoin:bevel;stroke-miterlimit:10;stroke-dasharray:none;stroke-opacity:1"
         id="path4792"
         inkscape:connector-curvature="0" /></g><g
       id="g4794"
       transform="matrix(0.12,0,0,-0.12,3,849.39)"><path
         d="m 2371,5005 -683,-1 m -94,1 h -252 m -389,0 H 383 m 3682,0 H 2764 m 237,-2126 h -237"
         style="fill:none;stroke:#000000;stroke-width:7;stroke-linecap:round;stroke-linejoin:round;stroke-miterlimit:10;stroke-dasharray:none;stroke-opacity:1"
         id="path4796"
         inkscape:connector-curvature="0" /></g><path
       d="m 372.36,503.91 -12.48,-1.92 v 3.84 z"
       style="fill:#000000;fill-opacity:1;fill-rule:evenodd;stroke:none"
       id="path4798"
       inkscape:connector-curvature="0" /><g
       id="g4800"
       transform="matrix(0.12,0,0,-0.12,3,849.39)"><path
         d="M 2370,2879 H 1689"
         style="fill:none;stroke:#000000;stroke-width:7;stroke-linecap:round;stroke-linejoin:round;stroke-miterlimit:10;stroke-dasharray:none;stroke-opacity:1"
         id="path4802"
         inkscape:connector-curvature="0" /></g><path
       d="m 295.44,503.91 -12.6,-1.8 v 3.72 z"
       style="fill:#000000;fill-opacity:1;fill-rule:evenodd;stroke:none"
       id="path4804"
       inkscape:connector-curvature="0" /><text
       transform="scale(1,-1)"
       style="font-variant:normal;font-weight:normal;font-size:22.79999924px;font-family:Symbol;-inkscape-font-specification:Symbol;writing-mode:lr-tb;fill:#000000;fill-opacity:1;fill-rule:nonzero;stroke:none"
       id="text4808"
       x="386.99759"
       y="-495.5112"><tspan
         x="386.99759"
         y="-495.5112"
         id="tspan4806">q<tspan
   style="font-size:8.0000002px;-inkscape-font-specification:Arial;font-family:Arial;font-weight:normal;font-style:normal;font-stretch:normal;font-variant:normal"
   id="tspan5100">к</tspan></tspan></text>
<text
       transform="scale(1,-1)"
       style="font-variant:normal;font-weight:normal;font-size:22.79999924px;font-family:Symbol;-inkscape-font-specification:Symbol;writing-mode:lr-tb;fill:#000000;fill-opacity:1;fill-rule:nonzero;stroke:none"
       id="text4812"
       x="303.23041"
       y="-515.7804"><tspan
         x="303.23041"
         y="-515.7804"
         id="tspan4810">l<tspan
   style="font-size:8.0000002px;-inkscape-font-specification:Arial;font-family:Arial;font-weight:normal;font-style:normal;font-stretch:normal;font-variant:normal"
   id="tspan5102">3к</tspan></tspan></text>
<g
       id="g4818"
       transform="matrix(0.12,0,0,-0.12,3,849.39)"
       style="fill:#66ff00"><path
         d="m 3171,2879 -1,-10 -4,-10 -5,-9 -7,-7 -9,-5 -10,-4 -10,-1 -10,1 -10,4 -9,5 -7,7 -5,9 -4,10 -1,10 1,10 4,10 5,9 7,7 9,5 10,4 10,1 10,-1 10,-4 9,-5 7,-7 5,-9 4,-10 z"
         style="fill:#66ff00;stroke:#000000;stroke-width:7;stroke-linecap:round;stroke-linejoin:bevel;stroke-miterlimit:10;stroke-dasharray:none;stroke-opacity:1"
         id="path4820"
         inkscape:connector-curvature="0" /></g><path
       d="m 48.96,498.27 1.92,-12.48 h -3.84 z"
       style="fill:#000000;fill-opacity:1;fill-rule:evenodd;stroke:none"
       id="path4826"
       inkscape:connector-curvature="0" /><text
       transform="scale(1,-1)"
       style="font-variant:normal;font-weight:normal;font-size:22.79999924px;font-family:Symbol;-inkscape-font-specification:Symbol;writing-mode:lr-tb;fill:#000000;fill-opacity:1;fill-rule:nonzero;stroke:none"
       id="text4830"
       x="130.2012"
       y="-260.8992"><tspan
         x="130.2012"
         y="-260.8992"
         id="tspan4828">l<tspan
   style="font-size:8.0000002px;-inkscape-font-specification:Arial;font-family:Arial;font-weight:normal;font-style:normal;font-stretch:normal;font-variant:normal"
   id="tspan5078">р2</tspan></tspan></text>
<g
       id="g4832"
       transform="matrix(0.12,0,0,-0.12,3,849.39)"><path
         d="m 3125,1906 v 271"
         style="fill:none;stroke:#000000;stroke-width:7;stroke-linecap:round;stroke-linejoin:round;stroke-miterlimit:10;stroke-dasharray:none;stroke-opacity:1"
         id="path4834"
         inkscape:connector-curvature="0" /></g><path
       d="m 378,627.51 1.92,-12.6 h -3.72 z"
       style="fill:#000000;fill-opacity:1;fill-rule:evenodd;stroke:none"
       id="path4836"
       inkscape:connector-curvature="0" /><g
       id="g4838"
       transform="matrix(0.12,0,0,-0.12,3,849.39)"><path
         d="m 3125,2562 v 270"
         style="fill:none;stroke:#000000;stroke-width:7;stroke-linecap:round;stroke-linejoin:round;stroke-miterlimit:10;stroke-dasharray:none;stroke-opacity:1"
         id="path4840"
         inkscape:connector-curvature="0" /></g><path
       d="m 378,548.79 1.92,-12.6 h -3.72 z"
       style="fill:#000000;fill-opacity:1;fill-rule:evenodd;stroke:none"
       id="path4842"
       inkscape:connector-curvature="0" /><text
       transform="scale(1,-1)"
       style="font-variant:normal;font-weight:normal;font-size:22.79999924px;font-family:Symbol;-inkscape-font-specification:Symbol;writing-mode:lr-tb;fill:#000000;fill-opacity:1;fill-rule:nonzero;stroke:none"
       id="text4846"
       x="388.68481"
       y="-565.94043"><tspan
         x="388.68481"
         y="-565.94043"
         id="tspan4844">l<tspan
   style="font-size:8.0000002px;-inkscape-font-specification:Arial;font-family:Arial;font-weight:normal;font-style:normal;font-stretch:normal;font-variant:normal"
   id="tspan5098">к0</tspan></tspan></text>
<g
       id="g4848"
       transform="matrix(0.12,0,0,-0.12,3,849.39)"
       style="fill:#66ff00"><path
         d="m 3171,1802 -1,-10 -4,-10 -5,-9 -7,-7 -9,-5 -10,-4 -10,-1 -10,1 -10,4 -9,5 -7,7 -5,9 -4,10 -1,10 1,10 4,10 5,9 7,7 9,5 10,4 10,1 10,-1 10,-4 9,-5 7,-7 5,-9 4,-10 z"
         style="fill:#66ff00;stroke:#000000;stroke-width:7;stroke-linecap:round;stroke-linejoin:bevel;stroke-miterlimit:10;stroke-dasharray:none;stroke-opacity:1"
         id="path4850"
         inkscape:connector-curvature="0" /></g><g
       id="g4852"
       transform="matrix(0.12,0,0,-0.12,3,849.39)"
       style="fill:#66ff00"><path
         d="m 429,1801 -1,-10 -4,-10 -5,-9 -7,-7 -9,-5 -10,-4 -10,-1 -10,1 -10,4 -9,5 -7,7 -5,9 -4,10 -1,10 1,10 4,10 5,9 7,7 9,5 10,4 10,1 10,-1 10,-4 9,-5 7,-7 5,-9 4,-10 z"
         style="fill:#66ff00;stroke:#000000;stroke-width:7;stroke-linecap:round;stroke-linejoin:bevel;stroke-miterlimit:10;stroke-dasharray:none;stroke-opacity:1"
         id="path4854"
         inkscape:connector-curvature="0" /></g><g
       id="g4856"
       transform="matrix(0.12,0,0,-0.12,3,849.39)"><path
         d="m 383,1907 v 269"
         style="fill:none;stroke:#000000;stroke-width:7;stroke-linecap:round;stroke-linejoin:round;stroke-miterlimit:10;stroke-dasharray:none;stroke-opacity:1"
         id="path4858"
         inkscape:connector-curvature="0" /></g><path
       d="m 48.96,627.63 1.92,-12.6 h -3.84 z"
       style="fill:#000000;fill-opacity:1;fill-rule:evenodd;stroke:none"
       id="path4860"
       inkscape:connector-curvature="0" /><g
       id="g4862"
       transform="matrix(0.12,0,0,-0.12,3,849.39)"><path
         d="m 383,2559 v 273"
         style="fill:none;stroke:#000000;stroke-width:7;stroke-linecap:round;stroke-linejoin:round;stroke-miterlimit:10;stroke-dasharray:none;stroke-opacity:1"
         id="path4864"
         inkscape:connector-curvature="0" /></g><path
       d="m 48.96,548.91 1.92,-12.6 h -3.84 z"
       style="fill:#000000;fill-opacity:1;fill-rule:evenodd;stroke:none"
       id="path4866"
       inkscape:connector-curvature="0" /><text
       transform="scale(1,-1)"
       style="font-variant:normal;font-weight:normal;font-size:22.79999924px;font-family:Symbol;-inkscape-font-specification:Symbol;writing-mode:lr-tb;fill:#000000;fill-opacity:1;fill-rule:nonzero;stroke:none"
       id="text4870"
       x="59.521198"
       y="-566.07721"><tspan
         x="59.521198"
         y="-566.07721"
         id="tspan4868">l<tspan
   style="font-size:8.0000002px;-inkscape-font-specification:Arial;font-family:Arial;font-weight:normal;font-style:normal;font-stretch:normal;font-variant:normal"
   id="tspan5052">10</tspan></tspan></text>
<text
       transform="scale(1,-1)"
       style="font-variant:normal;font-weight:normal;font-size:22.79999924px;font-family:Symbol;-inkscape-font-specification:Symbol;writing-mode:lr-tb;fill:#000000;fill-opacity:1;fill-rule:nonzero;stroke:none"
       id="text4878"
       x="52.316399"
       y="-638.30762"><tspan
         x="52.316399"
         y="-638.30762"
         id="tspan4876">q<tspan
   style="font-size:8.0000002px;-inkscape-font-specification:Arial;font-family:Arial;font-weight:normal;font-style:normal;font-stretch:normal;font-variant:normal"
   id="tspan5050">0</tspan></tspan></text>
<text
       transform="scale(1,-1)"
       style="font-variant:normal;font-weight:normal;font-size:22.79999924px;font-family:Symbol;-inkscape-font-specification:Symbol;writing-mode:lr-tb;fill:#000000;fill-opacity:1;fill-rule:nonzero;stroke:none"
       id="text4882"
       x="505.92239"
       y="-641.43121"><tspan
         x="505.92239"
         y="-641.43121"
         id="tspan4880">q<tspan
   style="-inkscape-font-specification:Arial;font-family:Arial;font-weight:normal;font-style:normal;font-stretch:normal;font-variant:normal;font-size:8.0000002px"
   id="tspan5130">0</tspan></tspan></text>
<g
       id="g4892"
       transform="matrix(0.12,0,0,-0.12,3,849.39)"><path
         d="M 383,4003 V 5005"
         style="fill:none;stroke:#000000;stroke-width:7;stroke-linecap:round;stroke-linejoin:round;stroke-miterlimit:10;stroke-dasharray:none;stroke-opacity:1"
         id="path4894"
         inkscape:connector-curvature="0" /></g><path
       d="m 295.44,202.71 -12.6,-1.92 v 3.72 z"
       style="fill:#000000;fill-opacity:1;fill-rule:evenodd;stroke:none"
       id="path4896"
       inkscape:connector-curvature="0" /><text
       transform="scale(1,-1)"
       style="font-variant:normal;font-weight:normal;font-size:22.79999924px;font-family:Symbol;-inkscape-font-specification:Symbol;writing-mode:lr-tb;fill:#000000;fill-opacity:1;fill-rule:nonzero;stroke:none"
       id="text4900"
       x="307.67639"
       y="-214.70641"><tspan
         x="307.67639"
         y="-214.70641"
         id="tspan4898">l<tspan
   style="font-size:8.0000002px;-inkscape-font-specification:Arial;font-family:Arial;font-weight:normal;font-style:normal;font-stretch:normal;font-variant:normal"
   id="tspan5128">р5</tspan></tspan></text>
<g
       id="g4906"
       transform="matrix(0.12,0,0,-0.12,3,849.39)"><path
         d="m 2374,5389 h -733 m 3078,0 H 2764 M 1641,5052 v 337"
         style="fill:none;stroke:#000000;stroke-width:7;stroke-linecap:round;stroke-linejoin:round;stroke-miterlimit:10;stroke-dasharray:none;stroke-opacity:1"
         id="path4908"
         inkscape:connector-curvature="0" /></g><g
       id="g4910"
       transform="matrix(0.12,0,0,-0.12,3,849.39)"><path
         d="M 4719,5389 V 3956 h -438"
         style="fill:none;stroke:#000000;stroke-width:7;stroke-linecap:round;stroke-linejoin:round;stroke-miterlimit:10;stroke-dasharray:none;stroke-opacity:1"
         id="path4912"
         inkscape:connector-curvature="0" /></g><path
       d="m 509.76,374.67 12.6,1.8 v -3.72 z"
       style="fill:#000000;fill-opacity:1;fill-rule:evenodd;stroke:none"
       id="path4914"
       inkscape:connector-curvature="0" /><g
       id="g4968"
       transform="matrix(0.12,0,0,-0.12,3,849.39)"
       style="fill:#66ff00"><path
         d="m 441,3253 v 328 H 325 v -328 h 1"
         style="fill:#66ff00;stroke:#000000;stroke-width:7;stroke-linecap:round;stroke-linejoin:round;stroke-miterlimit:10;stroke-dasharray:none;stroke-opacity:1"
         id="path4970"
         inkscape:connector-curvature="0" /></g><g
       id="g4972"
       transform="matrix(0.12,0,0,-0.12,3,849.39)"><path
         d="M 325,3253 H 441"
         style="fill:none;stroke:#000000;stroke-width:7;stroke-linecap:round;stroke-linejoin:round;stroke-miterlimit:10;stroke-dasharray:none;stroke-opacity:1"
         id="path4974"
         inkscape:connector-curvature="0" /></g><g
       id="g4976"
       transform="matrix(0.12,0,0,-0.12,3,849.39)"
       style="fill:#66ff00"><path
         d="m 441,2176 v 328 H 325 v -328 h 1"
         style="fill:#66ff00;stroke:#000000;stroke-width:7;stroke-linecap:round;stroke-linejoin:round;stroke-miterlimit:10;stroke-dasharray:none;stroke-opacity:1"
         id="path4978"
         inkscape:connector-curvature="0" /></g><g
       id="g4980"
       transform="matrix(0.12,0,0,-0.12,3,849.39)"><path
         d="M 325,2176 H 441"
         style="fill:none;stroke:#000000;stroke-width:7;stroke-linecap:round;stroke-linejoin:round;stroke-miterlimit:10;stroke-dasharray:none;stroke-opacity:1"
         id="path4982"
         inkscape:connector-curvature="0" /></g><g
       id="g4984"
       transform="matrix(0.12,0,0,-0.12,3,849.39)"
       style="fill:#66ff00"><path
         d="m 1699,2176 v 328 h -115 v -328 h 1"
         style="fill:#66ff00;stroke:#000000;stroke-width:7;stroke-linecap:round;stroke-linejoin:round;stroke-miterlimit:10;stroke-dasharray:none;stroke-opacity:1"
         id="path4986"
         inkscape:connector-curvature="0" /></g><g
       id="g4988"
       transform="matrix(0.12,0,0,-0.12,3,849.39)"><path
         d="m 1584,2176 h 115"
         style="fill:none;stroke:#000000;stroke-width:7;stroke-linecap:round;stroke-linejoin:round;stroke-miterlimit:10;stroke-dasharray:none;stroke-opacity:1"
         id="path4990"
         inkscape:connector-curvature="0" /></g><g
       id="g4992"
       transform="matrix(0.12,0,0,-0.12,3,849.39)"
       style="fill:#66ff00"><path
         d="m 3183,2177 v 328 h -115 v -328 z"
         style="fill:#66ff00;stroke:#000000;stroke-width:7;stroke-linecap:round;stroke-linejoin:round;stroke-miterlimit:10;stroke-dasharray:none;stroke-opacity:1"
         id="path4994"
         inkscape:connector-curvature="0" /></g><g
       id="g4996"
       transform="matrix(0.12,0,0,-0.12,3,849.39)"
       style="fill:#66ff00"><path
         d="m 4234,2177 v 328 h -115 v -328 z"
         style="fill:#66ff00;stroke:#000000;stroke-width:7;stroke-linecap:round;stroke-linejoin:round;stroke-miterlimit:10;stroke-dasharray:none;stroke-opacity:1"
         id="path4998"
         inkscape:connector-curvature="0" /></g><g
       id="g5000"
       transform="matrix(0.12,0,0,-0.12,3,849.39)"
       style="fill:#66ff00"><path
         d="m 2764,2937 h -327 v -115 h 327 v 1"
         style="fill:#66ff00;stroke:#000000;stroke-width:7;stroke-linecap:round;stroke-linejoin:round;stroke-miterlimit:10;stroke-dasharray:none;stroke-opacity:1"
         id="path5002"
         inkscape:connector-curvature="0" /></g><g
       id="g5004"
       transform="matrix(0.12,0,0,-0.12,3,849.39)"><path
         d="m 2764,2822 v 115"
         style="fill:none;stroke:#000000;stroke-width:7;stroke-linecap:round;stroke-linejoin:round;stroke-miterlimit:10;stroke-dasharray:none;stroke-opacity:1"
         id="path5006"
         inkscape:connector-curvature="0" /></g><g
       id="g5008"
       transform="matrix(0.12,0,0,-0.12,3,849.39)"
       style="fill:#66ff00"><path
         d="m 1699,3253 v 328 h -115 v -328 z"
         style="fill:#66ff00;stroke:#000000;stroke-width:7;stroke-linecap:round;stroke-linejoin:round;stroke-miterlimit:10;stroke-dasharray:none;stroke-opacity:1"
         id="path5010"
         inkscape:connector-curvature="0" /></g><g
       id="g5012"
       transform="matrix(0.12,0,0,-0.12,3,849.39)"
       style="fill:#66ff00"><path
         d="M 1281,4014 H 953 v -115 h 328 z"
         style="fill:#66ff00;stroke:#000000;stroke-width:7;stroke-linecap:round;stroke-linejoin:round;stroke-miterlimit:10;stroke-dasharray:none;stroke-opacity:1"
         id="path5014"
         inkscape:connector-curvature="0" /></g><path
       d="m 156.72,248.79 12.6,1.92 v -3.72 z"
       style="fill:#000000;fill-opacity:1;fill-rule:evenodd;stroke:none"
       id="path5016"
       inkscape:connector-curvature="0" /><g
       id="g5018"
       transform="matrix(0.12,0,0,-0.12,3,849.39)"
       style="fill:#66ff00"><path
         d="M 1281,5063 H 953 v -115 h 328 z"
         style="fill:#66ff00;stroke:#000000;stroke-width:7;stroke-linecap:round;stroke-linejoin:round;stroke-miterlimit:10;stroke-dasharray:none;stroke-opacity:1"
         id="path5020"
         inkscape:connector-curvature="0" /></g><g
       id="g5022"
       transform="matrix(0.12,0,0,-0.12,3,849.39)"
       style="fill:#66ff00"><path
         d="m 2764,4014 h -327 v -115 h 327 z"
         style="fill:#66ff00;stroke:#000000;stroke-width:7;stroke-linecap:round;stroke-linejoin:round;stroke-miterlimit:10;stroke-dasharray:none;stroke-opacity:1"
         id="path5024"
         inkscape:connector-curvature="0" /></g><g
       id="g5026"
       transform="matrix(0.12,0,0,-0.12,3,849.39)"
       style="fill:#66ff00"><path
         d="m 3814,4014 h -328 v -115 h 328 z"
         style="fill:#66ff00;stroke:#000000;stroke-width:7;stroke-linecap:round;stroke-linejoin:round;stroke-miterlimit:10;stroke-dasharray:none;stroke-opacity:1"
         id="path5028"
         inkscape:connector-curvature="0" /></g><g
       id="g5030"
       transform="matrix(0.12,0,0,-0.12,3,849.39)"
       style="fill:#66ff00"><path
         d="m 4234,4317 v 328 h -115 v -328 z"
         style="fill:#66ff00;stroke:#000000;stroke-width:7;stroke-linecap:round;stroke-linejoin:round;stroke-miterlimit:10;stroke-dasharray:none;stroke-opacity:1"
         id="path5032"
         inkscape:connector-curvature="0" /></g><g
       id="g5034"
       transform="matrix(0.12,0,0,-0.12,3,849.39)"
       style="fill:#66ff00"><path
         d="m 1699,4317 v 328 h -115 v -328 h 1"
         style="fill:#66ff00;stroke:#000000;stroke-width:7;stroke-linecap:round;stroke-linejoin:round;stroke-miterlimit:10;stroke-dasharray:none;stroke-opacity:1"
         id="path5036"
         inkscape:connector-curvature="0" /></g><g
       id="g5038"
       transform="matrix(0.12,0,0,-0.12,3,849.39)"><path
         d="m 1584,4317 h 115"
         style="fill:none;stroke:#000000;stroke-width:7;stroke-linecap:round;stroke-linejoin:round;stroke-miterlimit:10;stroke-dasharray:none;stroke-opacity:1"
         id="path5040"
         inkscape:connector-curvature="0" /></g><g
       id="g5042"
       transform="matrix(0.12,0,0,-0.12,3,849.39)"
       style="fill:#66ff00"><path
         d="m 2764,5062 h -327 v -115 h 327 z"
         style="fill:#66ff00;stroke:#000000;stroke-width:7;stroke-linecap:round;stroke-linejoin:round;stroke-miterlimit:10;stroke-dasharray:none;stroke-opacity:1"
         id="path5044"
         inkscape:connector-curvature="0" /></g><g
       id="g5046"
       transform="matrix(0.12,0,0,-0.12,3,849.39)"
       style="fill:#66ff00"><path
         d="m 2764,5447 h -327 v -115 h 327 z"
         style="fill:#66ff00;stroke:#000000;stroke-width:7;stroke-linecap:round;stroke-linejoin:round;stroke-miterlimit:10;stroke-dasharray:none;stroke-opacity:1"
         id="path5048"
         inkscape:connector-curvature="0" /></g><text
       style="font-variant:normal;font-weight:normal;font-size:22.79999924px;font-family:Symbol;-inkscape-font-specification:Symbol;writing-mode:lr-tb;fill:#000000;fill-opacity:1;fill-rule:nonzero;stroke:none;stroke-width:0.99999994"
       id="text4558-8"
       x="53.828583"
       y="-380.70993"
       transform="scale(1,-1)"><tspan
         style="stroke-width:0.99999994"
         x="53.828583"
         y="-380.70993"
         id="tspan4556-6">q<tspan
   style="font-size:8.0000002px;-inkscape-font-specification:Arial;font-family:Arial;font-weight:normal;font-style:normal;font-stretch:normal;font-variant:normal"
   id="tspan5076">2</tspan></tspan></text>
<flowRoot
       xml:space="preserve"
       id="flowRoot5108"
       style="fill:black;fill-opacity:1;stroke:none;font-family:sans-serif;font-style:normal;font-weight:normal;font-size:40px;line-height:1.25;letter-spacing:0px;word-spacing:0px"><flowRegion
         id="flowRegion5110"><rect
           id="rect5112"
           width="31.367218"
           height="55.121033"
           x="451.7793"
           y="342.66602" /></flowRegion><flowPara
         id="flowPara5114"></flowPara></flowRoot></g></svg>