<?xml version="1.0" encoding="UTF-8" standalone="no"?>
<!-- Created with Inkscape (http://www.inkscape.org/) -->

<svg
   xmlns:dc="http://purl.org/dc/elements/1.1/"
   xmlns:cc="http://creativecommons.org/ns#"
   xmlns:rdf="http://www.w3.org/1999/02/22-rdf-syntax-ns#"
   xmlns:svg="http://www.w3.org/2000/svg"
   xmlns="http://www.w3.org/2000/svg"
   xmlns:sodipodi="http://sodipodi.sourceforge.net/DTD/sodipodi-0.dtd"
   xmlns:inkscape="http://www.inkscape.org/namespaces/inkscape"
   version="1.1"
   id="svg815"
   xml:space="preserve"
   width="1122.52"
   height="793.70135"
   viewBox="0 0 1122.52 793.70135"
   sodipodi:docname="vent_tract.svg"
   inkscape:version="0.92.4 (5da689c313, 2019-01-14)"><metadata
     id="metadata821"><rdf:RDF><cc:Work
         rdf:about=""><dc:format>image/svg+xml</dc:format><dc:type
           rdf:resource="http://purl.org/dc/dcmitype/StillImage" /><dc:title></dc:title></cc:Work></rdf:RDF></metadata><defs
     id="defs819" /><sodipodi:namedview
     pagecolor="#ffffff"
     bordercolor="#666666"
     borderopacity="1"
     objecttolerance="10"
     gridtolerance="10"
     guidetolerance="10"
     inkscape:pageopacity="0"
     inkscape:pageshadow="2"
     inkscape:window-width="3840"
     inkscape:window-height="2066"
     id="namedview817"
     showgrid="false"
     inkscape:zoom="2.3220321"
     inkscape:cx="561.26001"
     inkscape:cy="396.85068"
     inkscape:window-x="-11"
     inkscape:window-y="-11"
     inkscape:window-maximized="1"
     inkscape:current-layer="g823" /><g
     id="g823"
     inkscape:groupmode="layer"
     inkscape:label="zzz2"
     transform="matrix(1.3333333,0,0,-1.3333333,0,793.70133)"><g
       id="g825"
       transform="matrix(0.12,0,0,-0.12,0,595.276)"><path
         d="m 226,3809 v -595 m 0,-633 v -568 m 95,1820 v -642 m 0,-588 v -613 m 96,1866 v -689 m 0,-541 v -658 m 96,1912 v -737 m 0,-495 v -703 m 95,1959 v -784 m 0,-449 v -748 m 96,2004 v -831 m 0,-403 v -793 m 95,2051 v -878 m 0,-357 v -838 m 96,2096 v -925 m 0,-311 v -883 m 96,2143 v -972 m 0,-265 v -928 m 95,2188 V 3002 m 0,-219 v -973 m 96,2235 V 2978 m 0,-172 V 1788 m 95,2281 V 2955 m 0,-127 V 1765 m 96,2327 V 2931 m 0,-80 V 1743"
         style="fill:none;stroke:#000000;stroke-width:6;stroke-linecap:round;stroke-linejoin:round;stroke-miterlimit:10;stroke-dasharray:none;stroke-opacity:1"
         id="path827"
         inkscape:connector-curvature="0" /></g><g
       id="g829"
       transform="matrix(0.12,0,0,-0.12,0,595.276)"><path
         d="m 200,4116 h 2795 m 0,75 h 1465 m 0,100 h 847"
         style="fill:none;stroke:#000000;stroke-width:7;stroke-linecap:round;stroke-linejoin:round;stroke-miterlimit:10;stroke-dasharray:none;stroke-opacity:1"
         id="path831"
         inkscape:connector-curvature="0" /></g><g
       id="g833"
       transform="matrix(0.12,0,0,-0.12,0,595.276)"><path
         d="M 5763,4783 V 1673"
         style="fill:none;stroke:#000000;stroke-width:7;stroke-linecap:round;stroke-linejoin:round;stroke-miterlimit:10;stroke-dasharray:none;stroke-opacity:1"
         id="path835"
         inkscape:connector-curvature="0" /></g><g
       id="g837"
       transform="matrix(0.12,0,0,-0.12,0,595.276)"><path
         d="M 5695,1540 4780,890"
         style="fill:none;stroke:#000000;stroke-width:7;stroke-linecap:round;stroke-linejoin:round;stroke-miterlimit:10;stroke-dasharray:none;stroke-opacity:1"
         id="path839"
         inkscape:connector-curvature="0" /></g><g
       id="g841"
       transform="matrix(0.12,0,0,-0.12,0,595.276)"><path
         d="m 5762,1673 -1,-15 -2,-16 -4,-15 -5,-14 -6,-14 -8,-14 -9,-12 -10,-12 -11,-10 -12,-10"
         style="fill:none;stroke:#000000;stroke-width:7;stroke-linecap:round;stroke-linejoin:bevel;stroke-miterlimit:10;stroke-dasharray:none;stroke-opacity:1"
         id="path843"
         inkscape:connector-curvature="0" /></g><g
       id="g845"
       transform="matrix(0.12,0,0,-0.12,0,595.276)"><path
         d="m 5697,1707 -1,-15 -2,-16 -4,-15 -5,-14 -6,-14 -8,-14 -9,-12 -10,-12 -11,-10 -12,-10"
         style="fill:none;stroke:#000000;stroke-width:7;stroke-linecap:round;stroke-linejoin:bevel;stroke-miterlimit:10;stroke-dasharray:none;stroke-opacity:1"
         id="path847"
         inkscape:connector-curvature="0" /></g><g
       id="g849"
       transform="matrix(0.12,0,0,-0.12,0,595.276)"><path
         d="m 4460,4060 h 74 m -373,-1401 459,1129"
         style="fill:none;stroke:#000000;stroke-width:7;stroke-linecap:round;stroke-linejoin:round;stroke-miterlimit:10;stroke-dasharray:none;stroke-opacity:1"
         id="path851"
         inkscape:connector-curvature="0" /></g><g
       id="g853"
       transform="matrix(0.12,0,0,-0.12,0,595.276)"><path
         d="m 4534,4060 16,-1 15,-3 15,-4 14,-7 14,-8 12,-9 11,-11 10,-13 8,-13 6,-14 5,-15 3,-15 1,-16 -1,-16 -3,-15 -4,-15"
         style="fill:none;stroke:#000000;stroke-width:7;stroke-linecap:round;stroke-linejoin:bevel;stroke-miterlimit:10;stroke-dasharray:none;stroke-opacity:1"
         id="path855"
         inkscape:connector-curvature="0" /></g><g
       id="g857"
       transform="matrix(0.12,0,0,-0.12,0,595.276)"><path
         d="m 4161,2659 h 93 m 418,1027 5,15"
         style="fill:none;stroke:#000000;stroke-width:7;stroke-linecap:round;stroke-linejoin:round;stroke-miterlimit:10;stroke-dasharray:none;stroke-opacity:1"
         id="path859"
         inkscape:connector-curvature="0" /></g><g
       id="g861"
       transform="matrix(0.12,0,0,-0.12,0,595.276)"><path
         d="m 5242,4125 -179,-58 -125,-72 -210,-180 -15,-17"
         style="fill:none;stroke:#000000;stroke-width:7;stroke-linecap:round;stroke-linejoin:round;stroke-miterlimit:10;stroke-dasharray:none;stroke-opacity:1"
         id="path863"
         inkscape:connector-curvature="0" /></g><g
       id="g865"
       transform="matrix(0.12,0,0,-0.12,0,595.276)"><path
         d="M 3701,1510 V 3343"
         style="fill:none;stroke:#000000;stroke-width:7;stroke-linecap:round;stroke-linejoin:round;stroke-miterlimit:10;stroke-dasharray:none;stroke-opacity:1"
         id="path867"
         inkscape:connector-curvature="0" /></g><g
       id="g869"
       transform="matrix(0.12,0,0,-0.12,0,595.276)"><path
         d="M 5399,2464 V 1933 L 4615,1375 H 4354"
         style="fill:none;stroke:#000000;stroke-width:7;stroke-linecap:round;stroke-linejoin:round;stroke-miterlimit:10;stroke-dasharray:none;stroke-opacity:1"
         id="path871"
         inkscape:connector-curvature="0" /></g><g
       id="g873"
       transform="matrix(0.12,0,0,-0.12,0,595.276)"><path
         d="M 5399,2464 4683,3571"
         style="fill:none;stroke:#000000;stroke-width:7;stroke-linecap:round;stroke-linejoin:round;stroke-miterlimit:10;stroke-dasharray:none;stroke-opacity:1"
         id="path875"
         inkscape:connector-curvature="0" /></g><g
       id="g877"
       transform="matrix(0.12,0,0,-0.12,0,595.276)"><path
         d="m 4683,3570 -7,16 -6,16 -3,16 -2,17 v 16 l 2,17 4,16 6,16"
         style="fill:none;stroke:#000000;stroke-width:7;stroke-linecap:round;stroke-linejoin:bevel;stroke-miterlimit:10;stroke-dasharray:none;stroke-opacity:1"
         id="path879"
         inkscape:connector-curvature="0" /></g><g
       id="g881"
       transform="matrix(0.12,0,0,-0.12,0,595.276)"><path
         d="m 4161,2659 -102,-279 m -14,-38 309,-967 M 1468,2874 V 1720 m -609,0 h 261"
         style="fill:none;stroke:#000000;stroke-width:7;stroke-linecap:round;stroke-linejoin:round;stroke-miterlimit:10;stroke-dasharray:none;stroke-opacity:1"
         id="path883"
         inkscape:connector-curvature="0" /></g><g
       id="g885"
       transform="matrix(0.12,0,0,-0.12,0,595.276)"><path
         d="m 2995,3539 h 717 v 652"
         style="fill:none;stroke:#000000;stroke-width:7;stroke-linecap:round;stroke-linejoin:round;stroke-miterlimit:10;stroke-dasharray:none;stroke-opacity:1"
         id="path887"
         inkscape:connector-curvature="0" /></g><g
       id="g889"
       transform="matrix(0.12,0,0,-0.12,0,595.276)"><path
         d="M 1469,2908 V 4116 M 200,2873 H 1468 M 200,2908 H 1469 M 3896,4091 V 1510 M 4696,943 H 200"
         style="fill:none;stroke:#000000;stroke-width:7;stroke-linecap:round;stroke-linejoin:round;stroke-miterlimit:10;stroke-dasharray:none;stroke-opacity:1"
         id="path891"
         inkscape:connector-curvature="0" /></g><g
       id="g893"
       transform="matrix(0.12,0,0,-0.12,0,595.276)"><path
         d="m 4780,970 -13,-8 -13,-7 -14,-5 -14,-4 -15,-2 -15,-1"
         style="fill:none;stroke:#000000;stroke-width:7;stroke-linecap:round;stroke-linejoin:bevel;stroke-miterlimit:10;stroke-dasharray:none;stroke-opacity:1"
         id="path895"
         inkscape:connector-curvature="0" /></g><g
       id="g897"
       transform="matrix(0.12,0,0,-0.12,0,595.276)"><path
         d="m 4780,970 850,604 M 4696,863 H 3078"
         style="fill:none;stroke:#000000;stroke-width:7;stroke-linecap:round;stroke-linejoin:round;stroke-miterlimit:10;stroke-dasharray:none;stroke-opacity:1"
         id="path899"
         inkscape:connector-curvature="0" /></g><g
       id="g901"
       transform="matrix(0.12,0,0,-0.12,0,595.276)"><path
         d="m 4780,890 -13,-8 -13,-7 -14,-5 -14,-4 -15,-2 -15,-1"
         style="fill:none;stroke:#000000;stroke-width:7;stroke-linecap:round;stroke-linejoin:bevel;stroke-miterlimit:10;stroke-dasharray:none;stroke-opacity:1"
         id="path903"
         inkscape:connector-curvature="0" /></g><g
       id="g905"
       transform="matrix(0.12,0,0,-0.12,0,595.276)"><path
         d="m 3078,863 v 80 M 200,1720 h 3501"
         style="fill:none;stroke:#000000;stroke-width:7;stroke-linecap:round;stroke-linejoin:round;stroke-miterlimit:10;stroke-dasharray:none;stroke-opacity:1"
         id="path907"
         inkscape:connector-curvature="0" /></g><g
       id="g909"
       transform="matrix(0.12,0,0,-0.12,0,595.276)"><path
         d="m 2527,2963 v 335 l -1058,62"
         style="fill:none;stroke:#000000;stroke-width:7;stroke-linecap:round;stroke-linejoin:round;stroke-miterlimit:10;stroke-dasharray:none;stroke-opacity:1"
         id="path911"
         inkscape:connector-curvature="0" /></g><g
       id="g913"
       transform="matrix(0.12,0,0,-0.12,0,595.276)"><path
         d="m 2527,2963 -1059,-55 m 3152,880 36,97 m 21,-184 36,97 m -654,-1418 -14,-38"
         style="fill:none;stroke:#000000;stroke-width:7;stroke-linecap:round;stroke-linejoin:round;stroke-miterlimit:10;stroke-dasharray:none;stroke-opacity:1"
         id="path915"
         inkscape:connector-curvature="0" /></g><g
       id="g917"
       transform="matrix(0.12,0,0,-0.12,0,595.276)"><path
         d="m 3773,3865 h -839 m 419,326 v -713"
         style="fill:none;stroke:#000000;stroke-width:6;stroke-linecap:round;stroke-linejoin:round;stroke-miterlimit:10;stroke-dasharray:none;stroke-opacity:1"
         id="path919"
         inkscape:connector-curvature="0" /></g><g
       id="g921"
       transform="matrix(0.12,0,0,-0.12,0,595.276)"><path
         d="M 5698,1707 V 4783"
         style="fill:none;stroke:#000000;stroke-width:7;stroke-linecap:round;stroke-linejoin:round;stroke-miterlimit:10;stroke-dasharray:none;stroke-opacity:1"
         id="path923"
         inkscape:connector-curvature="0" /></g><g
       id="g925"
       transform="matrix(0.12,0,0,-0.12,0,595.276)"><path
         d="m 2995,3343 h 706"
         style="fill:none;stroke:#000000;stroke-width:6;stroke-linecap:round;stroke-linejoin:round;stroke-miterlimit:10;stroke-dasharray:none;stroke-opacity:1"
         id="path927"
         inkscape:connector-curvature="0" /></g><g
       id="g929"
       transform="matrix(0.12,0,0,-0.12,0,595.276)"><path
         d="m 4254,2659 418,1027"
         style="fill:none;stroke:#000000;stroke-width:7;stroke-linecap:round;stroke-linejoin:round;stroke-miterlimit:10;stroke-dasharray:none;stroke-opacity:1"
         id="path931"
         inkscape:connector-curvature="0" /></g><g
       id="g933"
       transform="matrix(0.12,0,0,-0.12,0,595.276)"><path
         d="m 1468,2444 h 112"
         style="fill:none;stroke:#000000;stroke-width:7;stroke-linecap:round;stroke-linejoin:round;stroke-miterlimit:10;stroke-dasharray:none;stroke-opacity:1"
         id="path935"
         inkscape:connector-curvature="0" /></g><g
       id="g937"
       transform="matrix(0.12,0,0,-0.12,0,595.276)"><path
         d="m 1468,2873 h 112"
         style="fill:none;stroke:#000000;stroke-width:7;stroke-linecap:round;stroke-linejoin:round;stroke-miterlimit:10;stroke-dasharray:none;stroke-opacity:1"
         id="path939"
         inkscape:connector-curvature="0" /></g><g
       id="g941"
       transform="matrix(0.12,0,0,-0.12,0,595.276)"><path
         d="M 1580,2444 2679,2137"
         style="fill:none;stroke:#000000;stroke-width:7;stroke-linecap:round;stroke-linejoin:round;stroke-miterlimit:10;stroke-dasharray:none;stroke-opacity:1"
         id="path943"
         inkscape:connector-curvature="0" /></g><g
       id="g945"
       transform="matrix(0.12,0,0,-0.12,0,595.276)"><path
         d="m 2797,2817 28,-6 27,-8 27,-11 25,-13 25,-14 23,-17 21,-19 20,-20 19,-22 16,-23 14,-25 13,-25 10,-27 8,-27 6,-28 3,-29 1,-28 -1,-29 -4,-28 -6,-28 -8,-27 -11,-27 -13,-25 -14,-25 -17,-23 -19,-21 -20,-20 -22,-19 -23,-16 -25,-14 -25,-13 -27,-10 -27,-8 -28,-6 -29,-3 -28,-1 -29,1 -28,4"
         style="fill:none;stroke:#000000;stroke-width:7;stroke-linecap:round;stroke-linejoin:bevel;stroke-miterlimit:10;stroke-dasharray:none;stroke-opacity:1"
         id="path947"
         inkscape:connector-curvature="0" /></g><g
       id="g949"
       transform="matrix(0.12,0,0,-0.12,0,595.276)"><path
         d="m 1580,2873 1217,-56"
         style="fill:none;stroke:#000000;stroke-width:7;stroke-linecap:round;stroke-linejoin:round;stroke-miterlimit:10;stroke-dasharray:none;stroke-opacity:1"
         id="path951"
         inkscape:connector-curvature="0" /></g><g
       id="g953"
       transform="matrix(0.12,0,0,-0.12,0,595.276)"><path
         d="M 3896,4091 H 3712"
         style="fill:none;stroke:#000000;stroke-width:6;stroke-linecap:round;stroke-linejoin:round;stroke-miterlimit:10;stroke-dasharray:none;stroke-opacity:1"
         id="path955"
         inkscape:connector-curvature="0" /></g><g
       id="g957"
       transform="matrix(0.12,0,0,-0.12,0,595.276)"><path
         d="M 2995,4783 V 3343 m 1465,1440 v -723 m 782,723 v -658 m 65,658 v -492"
         style="fill:none;stroke:#000000;stroke-width:7;stroke-linecap:round;stroke-linejoin:round;stroke-miterlimit:10;stroke-dasharray:none;stroke-opacity:1"
         id="path959"
         inkscape:connector-curvature="0" /></g><g
       id="g961"
       transform="matrix(0.12,0,0,-0.12,0,595.276)"><path
         d="m 3896,1510 h 1 m 1410,3273 h 1"
         style="fill:none;stroke:#000000;stroke-width:6;stroke-linecap:round;stroke-linejoin:round;stroke-miterlimit:10;stroke-dasharray:none;stroke-opacity:1"
         id="path963"
         inkscape:connector-curvature="0" /></g><g
       id="g965"
       transform="matrix(0.12,0,0,-0.12,0,595.276)"><path
         d="M 3896,1510 H 200 m 3501,0 -339,-567"
         style="fill:none;stroke:#000000;stroke-width:7;stroke-linecap:round;stroke-linejoin:round;stroke-miterlimit:10;stroke-dasharray:none;stroke-opacity:1"
         id="path967"
         inkscape:connector-curvature="0" /></g><g
       id="g969"
       transform="matrix(0.12,0,0,-0.12,0,595.276)"><path
         d="M 200,651 V 4783"
         style="fill:none;stroke:#000000;stroke-width:6;stroke-linecap:round;stroke-linejoin:round;stroke-miterlimit:10;stroke-dasharray:none;stroke-opacity:1"
         id="path971"
         inkscape:connector-curvature="0" /></g><g
       id="g973"
       transform="matrix(0.12,0,0,-0.12,0,595.276)"><path
         d="m 5698,1758 h 65 m -65,374 h 65 m -65,135 h 65 m -65,374 h 65 m -65,136 h 65 m -65,374 h 65 m -65,135 h 65 m -65,374 h 65 m -65,135 h 65 m -65,374 h 65 m -65,136 h 65 m -65,374 h 65"
         style="fill:none;stroke:#000000;stroke-width:7;stroke-linecap:round;stroke-linejoin:round;stroke-miterlimit:10;stroke-dasharray:none;stroke-opacity:1"
         id="path975"
         inkscape:connector-curvature="0" /></g><g
       id="g977"
       transform="matrix(0.12,0,0,-0.12,0,595.276)"><path
         d="M 6527,2849 H 5293 M 4608,2164 V 1878 M 3923,1193 H 1445"
         style="fill:none;stroke:#000000;stroke-width:24;stroke-linecap:round;stroke-linejoin:round;stroke-miterlimit:10;stroke-dasharray:none;stroke-opacity:1"
         id="path979"
         inkscape:connector-curvature="0" /></g><g
       id="g981"
       transform="matrix(0.12,0,0,-0.12,0,595.276)"><path
         d="m 4609,2164 1,38 3,39 6,38 7,37 10,37 11,37 14,36 16,35 17,34 20,33 21,32 23,30 25,30 26,28 28,26 30,25 30,23 32,21 33,20 34,17 35,16 36,14 37,11 37,10 37,7 38,6 39,3 38,1"
         style="fill:none;stroke:#000000;stroke-width:24;stroke-linecap:round;stroke-linejoin:bevel;stroke-miterlimit:10;stroke-dasharray:none;stroke-opacity:1"
         id="path983"
         inkscape:connector-curvature="0" /></g><g
       id="g985"
       transform="matrix(0.12,0,0,-0.12,0,595.276)"><path
         d="m 4607,1878 -1,-38 -3,-39 -6,-38 -7,-37 -10,-37 -11,-37 -14,-36 -16,-35 -17,-34 -20,-33 -21,-32 -23,-30 -25,-30 -26,-28 -28,-26 -30,-25 -30,-23 -32,-21 -33,-20 -34,-17 -35,-16 -36,-14 -37,-11 -37,-10 -37,-7 -38,-6 -39,-3 -38,-1"
         style="fill:none;stroke:#000000;stroke-width:24;stroke-linecap:round;stroke-linejoin:bevel;stroke-miterlimit:10;stroke-dasharray:none;stroke-opacity:1"
         id="path987"
         inkscape:connector-curvature="0" /></g><g
       id="g989"
       transform="matrix(0.12,0,0,-0.12,0,595.276)"><path
         d="m 2223,508 2,51 6,51 10,50 13,50 17,48 20,47 24,45 28,44 30,41 33,39 37,36 38,34 42,30 43,27 45,24 47,21 49,17 49,13 50,9 51,6 51,2"
         style="fill:none;stroke:#000000;stroke-width:24;stroke-linecap:round;stroke-linejoin:round;stroke-miterlimit:10;stroke-dasharray:none;stroke-opacity:1"
         id="path991"
         inkscape:connector-curvature="0" /></g><path
       d="m 720.48,253.396 29.4,5.88 v -11.64 z"
       style="fill:#000000;fill-opacity:1;fill-rule:evenodd;stroke:none"
       id="path993"
       inkscape:connector-curvature="0" /><path
       d="m 552.96,362.836 5.76,-29.4 h -11.64 z"
       style="fill:#000000;fill-opacity:1;fill-rule:evenodd;stroke:none"
       id="path995"
       inkscape:connector-curvature="0" /><g
       id="g997"
       transform="matrix(0.12,0,0,-0.12,0,595.276)"><path
         d="M 2223,508 V 186"
         style="fill:none;stroke:#000000;stroke-width:24;stroke-linecap:round;stroke-linejoin:round;stroke-miterlimit:10;stroke-dasharray:none;stroke-opacity:1"
         id="path999"
         inkscape:connector-curvature="0" /></g><path
       d="m 266.76,577.276 5.88,-29.4 H 261 Z"
       style="fill:#000000;fill-opacity:1;fill-rule:evenodd;stroke:none"
       id="path1001"
       inkscape:connector-curvature="0" /><path
       d="m 381.84,452.116 29.4,5.88 v -11.76 z"
       style="fill:#000000;fill-opacity:1;fill-rule:evenodd;stroke:none"
       id="path1003"
       inkscape:connector-curvature="0" /><path
       d="m 167.88,452.116 29.4,5.88 v -11.76 z"
       style="fill:#000000;fill-opacity:1;fill-rule:evenodd;stroke:none"
       id="path1005"
       inkscape:connector-curvature="0" /><g
       id="g1007"
       transform="matrix(0.12,0,0,-0.12,0,595.276)"><path
         d="m 5763,1694 h 1 m 419,3089 h -746 m -146,0 h 1 m -147,0 H 3979 m -145,0 h 1 m -147,0 H 2522 m -145,0 h 1 m -147,0 H 1065 m -145,0 h 1 m -147,0 H 27"
         style="fill:none;stroke:#000000;stroke-width:6;stroke-linecap:round;stroke-linejoin:round;stroke-miterlimit:10;stroke-dasharray:none;stroke-opacity:1"
         id="path1009"
         inkscape:connector-curvature="0" /></g><g
       id="g1011"
       transform="matrix(0.12,0,0,-0.12,0,595.276)"
       style="fill:#00ff00"><path
         d="m 5806,2849 -1,-13 -3,-12 -6,-12 -7,-11 -9,-9 -11,-7 -12,-6 -12,-3 -13,-1 -13,1 -12,3 -12,6 -11,7 -9,9 -7,11 -6,12 -3,12 -1,13 1,13 3,12 6,12 7,11 9,9 11,7 12,6 12,3 13,1 13,-1 12,-3 12,-6 11,-7 9,-9 7,-11 6,-12 3,-12 z"
         style="fill:#00ff00;stroke:#000000;stroke-width:6;stroke-linecap:round;stroke-linejoin:bevel;stroke-miterlimit:10;stroke-dasharray:none;stroke-opacity:1"
         id="path1013"
         inkscape:connector-curvature="0" /></g><g
       id="g1015"
       transform="matrix(0.12,0,0,-0.12,0,595.276)"><path
         d="m 5792,2804 129,-280 h 713"
         style="fill:none;stroke:#000000;stroke-width:6;stroke-linecap:round;stroke-linejoin:round;stroke-miterlimit:10;stroke-dasharray:none;stroke-opacity:1"
         id="path1017"
         inkscape:connector-curvature="0" /></g><g
       id="g1019"
       transform="matrix(0.12,0,0,-0.12,0,595.276)"
       style="fill:#00ff00"><path
         d="m 5232,2835 -1,-13 -3,-12 -6,-12 -7,-11 -9,-9 -11,-7 -12,-6 -12,-3 -13,-1 -13,1 -12,3 -12,6 -11,7 -9,9 -7,11 -6,12 -3,12 -1,13 1,13 3,12 6,12 7,11 9,9 11,7 12,6 12,3 13,1 13,-1 12,-3 12,-6 11,-7 9,-9 7,-11 6,-12 3,-12 z"
         style="fill:#00ff00;stroke:#000000;stroke-width:6;stroke-linecap:round;stroke-linejoin:bevel;stroke-miterlimit:10;stroke-dasharray:none;stroke-opacity:1"
         id="path1021"
         inkscape:connector-curvature="0" /></g><g
       id="g1023"
       transform="matrix(0.12,0,0,-0.12,0,595.276)"
       style="fill:#00ff00"><path
         d="m 4201,1224 -1,-13 -3,-12 -6,-12 -7,-11 -9,-9 -11,-7 -12,-6 -12,-3 -13,-1 -13,1 -12,3 -12,6 -11,7 -9,9 -7,11 -6,12 -3,12 -1,13 1,13 3,12 6,12 7,11 9,9 11,7 12,6 12,3 13,1 13,-1 12,-3 12,-6 11,-7 9,-9 7,-11 6,-12 3,-12 z"
         style="fill:#00ff00;stroke:#000000;stroke-width:6;stroke-linecap:round;stroke-linejoin:bevel;stroke-miterlimit:10;stroke-dasharray:none;stroke-opacity:1"
         id="path1025"
         inkscape:connector-curvature="0" /></g><g
       id="g1027"
       transform="matrix(0.12,0,0,-0.12,0,595.276)"
       style="fill:#00ff00"><path
         d="m 3586,1193 -1,-13 -3,-12 -6,-12 -7,-11 -9,-9 -11,-7 -12,-6 -12,-3 -13,-1 -13,1 -12,3 -12,6 -11,7 -9,9 -7,11 -6,12 -3,12 -1,13 1,13 3,12 6,12 7,11 9,9 11,7 12,6 12,3 13,1 13,-1 12,-3 12,-6 11,-7 9,-9 7,-11 6,-12 3,-12 z"
         style="fill:#00ff00;stroke:#000000;stroke-width:6;stroke-linecap:round;stroke-linejoin:bevel;stroke-miterlimit:10;stroke-dasharray:none;stroke-opacity:1"
         id="path1029"
         inkscape:connector-curvature="0" /></g><g
       id="g1031"
       transform="matrix(0.12,0,0,-0.12,0,595.276)"
       style="fill:#00ff00"><path
         d="m 2982,1193 -1,-13 -3,-12 -6,-12 -7,-11 -9,-9 -11,-7 -12,-6 -12,-3 -13,-1 -13,1 -12,3 -12,6 -11,7 -9,9 -7,11 -6,12 -3,12 -1,13 1,13 3,12 6,12 7,11 9,9 11,7 12,6 12,3 13,1 13,-1 12,-3 12,-6 11,-7 9,-9 7,-11 6,-12 3,-12 z"
         style="fill:#00ff00;stroke:#000000;stroke-width:6;stroke-linecap:round;stroke-linejoin:bevel;stroke-miterlimit:10;stroke-dasharray:none;stroke-opacity:1"
         id="path1033"
         inkscape:connector-curvature="0" /></g><g
       id="g1035"
       transform="matrix(0.12,0,0,-0.12,0,595.276)"><path
         d="m 2341,749 -1,-13 -3,-12 -6,-12 -7,-11 -9,-9 -11,-7 -12,-6 -12,-3 -13,-1 -13,1 -12,3 -12,6 -11,7 -9,9 -7,11 -6,12 -3,12 -1,13 1,13 3,12 6,12 7,11 9,9 11,7 12,6 12,3 13,1 13,-1 12,-3 12,-6 11,-7 9,-9 7,-11 6,-12 3,-12 z"
         style="fill:none;stroke:#000000;stroke-width:6;stroke-linecap:round;stroke-linejoin:bevel;stroke-miterlimit:10;stroke-dasharray:none;stroke-opacity:1"
         id="path1037"
         inkscape:connector-curvature="0" /></g><text
       transform="matrix(1,0,0,-1,713.39616,295.27776)"
       style="font-variant:normal;font-weight:normal;font-size:8.15999985px;font-family:Arial;-inkscape-font-specification:Arial;writing-mode:lr-tb;fill:#000000;fill-opacity:1;fill-rule:nonzero;stroke:none"
       id="text1041"><tspan
         x="0 5.5200033 9.6000032 14.136963 18.960005 21.228485 25.560009 30.096968 34.63393 39.240013 43.080009 45.348492 49.800007 54.240009 60.720013 65.160019 68.897293 72.360016"
         y="0"
         sodipodi:role="line"
         id="tspan1039">Вход через решетку</tspan></text>
<text
       transform="matrix(1,0,0,-1,713.51856,285.5592)"
       style="font-variant:normal;font-weight:normal;font-size:8.15999985px;font-family:Arial;-inkscape-font-specification:Arial;writing-mode:lr-tb;fill:#000000;fill-opacity:1;fill-rule:nonzero;stroke:none"
       id="text1045"><tspan
         x="0 3.57408 8.1110401 13.680003 17.760004 21.840004 26.376963 28.645443 33.120003 37.656963 42.240002 46.080002 50.520004 55.200001 59.520004 63.257282 67.68 72.120003"
         y="0"
         sodipodi:role="line"
         id="tspan1043">кожуха вентилятора</tspan></text>
<g
       id="g1047"
       transform="matrix(0.12,0,0,-0.12,0,595.276)"><path
         d="m 5921,3299 h 989"
         style="fill:none;stroke:#000000;stroke-width:6;stroke-linecap:round;stroke-linejoin:round;stroke-miterlimit:10;stroke-dasharray:none;stroke-opacity:1"
         id="path1049"
         inkscape:connector-curvature="0" /></g><text
       transform="matrix(1,0,0,-1,717.59856,202.15584)"
       style="font-variant:normal;font-weight:normal;font-size:8.15999985px;font-family:Arial;-inkscape-font-specification:Arial;writing-mode:lr-tb;fill:#000000;fill-opacity:1;fill-rule:nonzero;stroke:none"
       id="text1053"><tspan
         x="0 5.8670402 10.404 14.879996 19.416956 23.953917 28.559999 32.399998 34.66848 39.091198 43.628159 47.519997 52.056957 55.631035 60.240002 62.50848 66.245758 70.68 72.840004 77.280006 81.720009 88.200012 92.640015 96.377296 99.840012 104.28002"
         y="0"
         sodipodi:role="line"
         id="tspan1051">Поворот потока за решеткой</tspan></text>
<text
       transform="matrix(1,0,0,-1,717.72096,192.43728)"
       style="font-variant:normal;font-weight:normal;font-size:8.15999985px;font-family:Arial;-inkscape-font-specification:Arial;writing-mode:lr-tb;fill:#000000;fill-opacity:1;fill-rule:nonzero;stroke:none"
       id="text1057"><tspan
         x="0 4.42272 8.9596796 13.560002 18.096962 22.920004 25.188484 29.640001 33.720001 38.256962 43.080002 47.616962 53.231041 55.560005 60.000008 62.160007 66.492966 70.920006 75.360008 79.09729 83.520004 88.200005 92.520004 96.257286 100.68001"
         y="0"
         sodipodi:role="line"
         id="tspan1055">перед входом в вентилятор</tspan></text>
<g
       id="g1059"
       transform="matrix(0.12,0,0,-0.12,0,595.276)"><path
         d="M 5921,3299 5222,2874 M 5088,417 h 793"
         style="fill:none;stroke:#000000;stroke-width:6;stroke-linecap:round;stroke-linejoin:round;stroke-miterlimit:10;stroke-dasharray:none;stroke-opacity:1"
         id="path1061"
         inkscape:connector-curvature="0" /></g><text
       transform="matrix(1,0,0,-1,613.43616,548.23776)"
       style="font-variant:normal;font-weight:normal;font-size:8.15999985px;font-family:Arial;-inkscape-font-specification:Arial;writing-mode:lr-tb;fill:#000000;fill-opacity:1;fill-rule:nonzero;stroke:none"
       id="text1065"><tspan
         x="0 5.8670402 10.404 14.879996 19.416956 23.953917 28.559999 32.399998 34.66848 39.091198 43.628159 47.519997 52.056957 55.559998 60 62.16 66.480003 70.920006 75.360008 79.800011"
         y="0"
         sodipodi:role="line"
         id="tspan1063">Поворот потока перед</tspan></text>
<text
       transform="matrix(1,0,0,-1,613.55856,538.3968)"
       style="font-variant:normal;font-weight:normal;font-size:8.15999985px;font-family:Arial;-inkscape-font-specification:Arial;writing-mode:lr-tb;fill:#000000;fill-opacity:1;fill-rule:nonzero;stroke:none"
       id="text1069"><tspan
         x="0 4.4400029 8.5200033 13.056963 17.880005 22.416964 28.031044 30.360006 34.800011 37.068489 42.682568 47.28001 52.800014 57.240017 61.680019 66.240021 70.680023 75.120033 79.560036 85.32003"
         y="0"
         sodipodi:role="line"
         id="tspan1067">входом в межреберные</tspan></text>
<text
       transform="matrix(1,0,0,-1,613.55856,528.67824)"
       style="font-variant:normal;font-weight:normal;font-size:8.15999985px;font-family:Arial;-inkscape-font-specification:Arial;writing-mode:lr-tb;fill:#000000;fill-opacity:1;fill-rule:nonzero;stroke:none"
       id="text1073"><tspan
         x="0 3.57408 8.1110401 12.720004 17.160007 21.840004"
         y="0"
         sodipodi:role="line"
         id="tspan1071">каналы</tspan></text>
<g
       id="g1075"
       transform="matrix(0.12,0,0,-0.12,0,595.276)"><path
         d="m 4135,417 h 712"
         style="fill:none;stroke:#000000;stroke-width:6;stroke-linecap:round;stroke-linejoin:round;stroke-miterlimit:10;stroke-dasharray:none;stroke-opacity:1"
         id="path1077"
         inkscape:connector-curvature="0" /></g><text
       transform="matrix(1,0,0,-1,498.95952,548.23776)"
       style="font-variant:normal;font-weight:normal;font-size:8.15999985px;font-family:Arial;-inkscape-font-specification:Arial;writing-mode:lr-tb;fill:#000000;fill-opacity:1;fill-rule:nonzero;stroke:none"
       id="text1081"><tspan
         x="0 4.7572799 9.3600016 13.440001 17.976961 22.538401 24.806881 29.279997 33.239998 37.68 42.359997 44.519997"
         y="0"
         sodipodi:role="line"
         id="tspan1079">Косой вход в</tspan></text>
<text
       transform="matrix(1,0,0,-1,499.08192,538.3968)"
       style="font-variant:normal;font-weight:normal;font-size:8.15999985px;font-family:Arial;-inkscape-font-specification:Arial;writing-mode:lr-tb;fill:#000000;fill-opacity:1;fill-rule:nonzero;stroke:none"
       id="text1085"><tspan
         x="0 5.61408 10.15104 15.720003 20.256964 24.793922 29.469603 34.080002 38.616962 43.200005 49.067043 53.604004 55.872482 59.446564 63.840004 68.280006 72.720009 77.400009"
         y="0"
         sodipodi:role="line"
         id="tspan1083">межреберные каналы</tspan></text>
<g
       id="g1087"
       transform="matrix(0.12,0,0,-0.12,0,595.276)"><path
         d="m 3283,417 h 713"
         style="fill:none;stroke:#000000;stroke-width:6;stroke-linecap:round;stroke-linejoin:round;stroke-miterlimit:10;stroke-dasharray:none;stroke-opacity:1"
         id="path1089"
         inkscape:connector-curvature="0" /></g><text
       transform="matrix(1,0,0,-1,396.83712,548.23776)"
       style="font-variant:normal;font-weight:normal;font-size:8.15999985px;font-family:Arial;-inkscape-font-specification:Arial;writing-mode:lr-tb;fill:#000000;fill-opacity:1;fill-rule:nonzero;stroke:none"
       id="text1093"><tspan
         x="0 5.8670402 10.404 14.879996 19.416956 23.953917 28.559999 32.399998 34.66848 39.119995 43.559998 47.297279 51.959999 55.919998 59.879997 64.32 66.480003"
         y="0"
         sodipodi:role="line"
         id="tspan1091">Поворот воздуха в</tspan></text>
<text
       transform="matrix(1,0,0,-1,396.83712,538.3968)"
       style="font-variant:normal;font-weight:normal;font-size:8.15999985px;font-family:Arial;-inkscape-font-specification:Arial;writing-mode:lr-tb;fill:#000000;fill-opacity:1;fill-rule:nonzero;stroke:none"
       id="text1097"><tspan
         x="0 5.61408 10.15104 15.720003 20.256964 24.793922 29.469603 34.080002 38.616962 43.200005 49.067043 53.147041 55.415524 58.989601 63.526562 67.920006 72.360008 77.040001 81.480011"
         y="0"
         sodipodi:role="line"
         id="tspan1095">межреберных каналах</tspan></text>
<g
       id="g1099"
       transform="matrix(0.12,0,0,-0.12,0,595.276)"><path
         d="m 2387,417 h 793"
         style="fill:none;stroke:#000000;stroke-width:6;stroke-linecap:round;stroke-linejoin:round;stroke-miterlimit:10;stroke-dasharray:none;stroke-opacity:1"
         id="path1101"
         inkscape:connector-curvature="0" /></g><text
       transform="matrix(1,0,0,-1,289.32096,547.99296)"
       style="font-variant:normal;font-weight:normal;font-size:8.15999985px;font-family:Arial;-inkscape-font-specification:Arial;writing-mode:lr-tb;fill:#000000;fill-opacity:1;fill-rule:nonzero;stroke:none"
       id="text1105"><tspan
         x="0 5.5200033 11.387043 15.467043 20.004004 24.840002 27.108482 31.669924 35.520008 37.788486 43.402565 48.000008 53.520012 58.056973 62.520012 67.080017 71.52002 75.960022 80.400024 86.160019"
         y="0"
         sodipodi:role="line"
         id="tspan1103">Выход из межреберных</tspan></text>
<text
       transform="matrix(1,0,0,-1,289.44336,538.2744)"
       style="font-variant:normal;font-weight:normal;font-size:8.15999985px;font-family:Arial;-inkscape-font-specification:Arial;writing-mode:lr-tb;fill:#000000;fill-opacity:1;fill-rule:nonzero;stroke:none"
       id="text1109"><tspan
         x="0 3.57408 8.1110401 12.720004 17.256964 22.080006 26.616964 31.080004 33.348484 37.799999 40.068481 44.605442 48.240002 52.776962 56.760006 62.219044 66.600006 72.599998 79.200005 83.640007"
         y="0"
         sodipodi:role="line"
         id="tspan1107">каналов в окружающее</tspan></text>
<text
       transform="matrix(1,0,0,-1,289.44336,528.55584)"
       style="font-variant:normal;font-weight:normal;font-size:8.15999985px;font-family:Arial;-inkscape-font-specification:Arial;writing-mode:lr-tb;fill:#000000;fill-opacity:1;fill-rule:nonzero;stroke:none"
       id="text1113"><tspan
         x="0 4.42272 8.9596796 13.560002 17.640003 21.48 26.01696 30.48 34.920002 38.880001 42.617279 46.950241"
         y="0"
         sodipodi:role="line"
         id="tspan1111">пространство</tspan></text>
<g
       id="g1115"
       transform="matrix(0.12,0,0,-0.12,0,595.276)"><path
         d="m 2387,417 -94,262 m 990,-262 -342,709 m 1194,-709 -580,716 m 1533,-716 -904,759"
         style="fill:none;stroke:#000000;stroke-width:6;stroke-linecap:round;stroke-linejoin:round;stroke-miterlimit:10;stroke-dasharray:none;stroke-opacity:1"
         id="path1117"
         inkscape:connector-curvature="0" /></g></g></svg>