<?xml version="1.0" encoding="UTF-8" standalone="no"?>
<svg
   viewBox="0 0 24 24"
   version="1.1"
   id="svg6"
   sodipodi:docname="archivator_blue_24.svg"
   inkscape:version="1.2.1 (9c6d41e410, 2022-07-14)"
   width="24"
   height="24"
   xmlns:inkscape="http://www.inkscape.org/namespaces/inkscape"
   xmlns:sodipodi="http://sodipodi.sourceforge.net/DTD/sodipodi-0.dtd"
   xmlns="http://www.w3.org/2000/svg"
   xmlns:svg="http://www.w3.org/2000/svg">
  <sodipodi:namedview
     id="namedview8"
     pagecolor="#ffffff"
     bordercolor="#666666"
     borderopacity="1.0"
     inkscape:showpageshadow="2"
     inkscape:pageopacity="0.0"
     inkscape:pagecheckerboard="0"
     inkscape:deskcolor="#d1d1d1"
     showgrid="false"
     inkscape:zoom="32"
     inkscape:cx="3.546875"
     inkscape:cy="11.578125"
     inkscape:window-width="1920"
     inkscape:window-height="1030"
     inkscape:window-x="0"
     inkscape:window-y="0"
     inkscape:window-maximized="1"
     inkscape:current-layer="svg6" />
  <defs
     id="defs3051">
    <linearGradient
       id="linearGradient1067"
       inkscape:swatch="gradient">
      <stop
         style="stop-color:#000000;stop-opacity:1;"
         offset="0"
         id="stop1063" />
      <stop
         style="stop-color:#000000;stop-opacity:0;"
         offset="1"
         id="stop1065" />
    </linearGradient>
    <style
       type="text/css"
       id="current-color-scheme">
      .ColorScheme-Text {
        color:#232629;
      }
      .ColorScheme-NegativeText {
        color:#da4453;
      }
      </style>
  </defs>
  <g
     id="g1533"
     transform="matrix(1.0862258,0,0,1.086599,3.6187975,3.4210807)">
    <path
       style="color:#000000;fill:#000000;fill-opacity:1;fill-rule:evenodd;stroke-width:1.58245"
       d="m 7.6529295,-1.9960578 c -5.4968292,0.1033511 -9.8942963,4.6432776 -9.8253933,10.1406466 0.068903,5.4973692 4.5780487,9.9216602 10.0757414,9.8872072 5.3050474,-0.03324 9.5497834,-4.237493 9.8470284,-9.4699603 l -0.02351,-0.00416 0.05692,-0.6657557 -0.05573,-0.6545768 0.0036,-0.010697 C 17.303545,2.0031918 12.957199,-2.0957884 7.6529295,-1.9960578 Z m 0.030907,1.58244771 C 12.0481,-0.49566633 15.572415,2.7769975 16.093681,7.0195672 l 0.288886,-0.4377909 -0.284126,0.4340757 0.07072,0.5832774 0.08028,0.563624 -0.108556,0.649591 C 15.72662,13.067178 12.25933,16.421993 7.8940054,16.449348 3.2480069,16.478464 -0.53178738,12.768678 -0.59001607,8.1229538 -0.64824477,3.4772289 3.0385679,-0.32626989 7.6838365,-0.41361009 Z"
       id="path357"
       sodipodi:nodetypes="ssscccccssccccccsss" />
    <text
       xml:space="preserve"
       style="font-style:normal;font-weight:normal;font-size:16.8795px;line-height:125%;font-family:sans-serif;letter-spacing:0px;word-spacing:0px;fill:#000000;fill-opacity:1;stroke:none;stroke-width:1.58245px;stroke-linecap:butt;stroke-linejoin:miter;stroke-opacity:1"
       x="2.5089338"
       y="13.027051"
       id="text4319"><tspan
         sodipodi:role="line"
         id="tspan4317"
         x="2.5089338"
         y="13.027051"
         style="font-size:16.8795px;stroke-width:1.58245px">А</tspan></text>
    <path
       style="fill:#00ffff;fill-opacity:1;stroke:#000000;stroke-width:0.0743409;stroke-linecap:round;stroke-linejoin:round;stroke-opacity:1;paint-order:stroke fill markers"
       d="M 6.8882322,16.372301 C 5.7043181,16.19296 4.8153891,15.90878 3.8772785,15.409733 1.697386,14.250096 0.17303896,12.209667 -0.39521248,9.690752 -0.56535727,8.9365432 -0.56448977,7.1296404 -0.3936063,6.3452288 0.31518201,3.091656 2.7138593,0.62843096 5.9441102,-0.16303376 6.7840046,-0.36882175 8.2887094,-0.4206303 9.1356408,-0.27292146 10.958724,0.04503327 12.510835,0.86291379 13.746082,2.1565392 c 1.308097,1.3699171 2.027257,2.9118959 2.328645,4.9929418 0.130979,0.9043934 0.134191,1.0297763 0.04208,1.6434716 -0.33308,2.2190094 -0.987134,3.6464594 -2.304235,5.0289214 -1.215137,1.275437 -2.594513,2.051085 -4.3131244,2.425345 -0.4980069,0.108445 -2.1869246,0.189353 -2.6112061,0.125077 z m -2.1012613,-5.18365 0.7025619,-1.8353674 2.378145,-4.196e-4 2.3781452,-4.197e-4 0.167425,0.4370936 c 0.09208,0.2404011 0.416851,1.0743761 0.721705,1.8532771 l 0.554279,1.416183 h 0.799026 c 0.439463,-1.2e-5 0.799024,-0.02399 0.799024,-0.0533 0,-0.02931 -1.04957,-2.759388 -2.33238,-6.0668583 L 8.6225223,0.92526856 H 7.9027956 7.1830696 L 4.8527135,6.9047086 C 3.5710179,10.193401 2.5212191,12.924517 2.5198273,12.973858 c -0.00195,0.06895 0.178857,0.08514 0.7810255,0.06993 l 0.7835563,-0.01978 z"
       id="path5123" />
    <path
       style="fill:#00ffff;fill-opacity:1;stroke:#000000;stroke-width:0.0777455;stroke-linecap:round;stroke-linejoin:round;stroke-opacity:1;paint-order:stroke fill markers"
       d="m 6.0036984,7.9283717 c 0,-0.025968 0.3241973,-0.9287751 0.7204381,-2.0062394 0.7189066,-1.9548612 1.090954,-3.0902663 1.101546,-3.3616706 0.00307,-0.078896 0.1789027,0.3700758 0.3907191,0.997716 0.2118167,0.6276399 0.6506791,1.8645058 0.9752501,2.7485904 0.3245711,0.8840849 0.5901291,1.6212397 0.5901291,1.6381222 0,0.016883 -0.8500685,0.030695 -1.8890412,0.030695 -1.0389726,0 -1.8890412,-0.021247 -1.8890412,-0.047214 z"
       id="path5125" />
  </g>
</svg>
